<svg width="360" height="345" viewBox="0 0 360 345" fill="none" xmlns="http://www.w3.org/2000/svg">
<path d="M259.273 295.572C260.034 295.71 260.76 296 261.406 296.424C262.053 296.849 262.607 297.4 263.036 298.044C263.886 299.343 264.428 300.819 264.622 302.36C265.072 305.311 264.231 308.654 263.102 311.421C260.114 309.945 258.557 306.448 257.886 304.61C256.816 301.703 256.646 295.808 259.273 295.572Z" fill="#EBEBEB"/>
<path d="M267.198 315.354C266.811 314.579 266.635 313.716 266.688 312.852C266.741 311.988 267.021 311.153 267.5 310.432C267.993 309.72 268.623 309.114 269.352 308.648C270.082 308.181 270.897 307.865 271.75 307.717C272.135 307.607 272.539 307.582 272.934 307.644C273.329 307.707 273.705 307.855 274.037 308.078C274.311 308.334 274.51 308.659 274.613 309.019C274.717 309.379 274.722 309.76 274.628 310.122C274.432 310.847 274.048 311.506 273.514 312.033C271.78 313.915 269.758 315.42 267.198 315.354Z" fill="#EBEBEB"/>
<path d="M266.497 324.99C266.452 324.789 266.427 324.584 266.423 324.378C266.386 323.942 266.334 323.381 266.275 322.703C266.069 320.856 266.158 318.987 266.541 317.169C266.955 315.344 267.849 313.662 269.131 312.299C269.524 311.893 269.965 311.537 270.444 311.236C270.572 311.152 270.705 311.076 270.843 311.008C270.931 310.963 270.983 310.941 270.99 310.949C269.9 311.658 268.963 312.578 268.234 313.655C267.505 314.732 267 315.945 266.748 317.22C266.373 319.02 266.266 320.865 266.43 322.695C266.467 323.433 266.497 323.972 266.504 324.37C266.519 324.577 266.517 324.784 266.497 324.99Z" fill="#E0E0E0"/>
<path d="M259.796 299.999C259.837 300.079 259.869 300.163 259.892 300.25L260.143 300.988C260.349 301.622 260.637 302.537 260.991 303.681C261.685 305.953 262.607 309.111 263.552 312.624C264.496 316.136 265.263 319.338 265.765 321.662C266.031 322.821 266.237 323.765 266.378 324.415C266.437 324.724 266.488 324.975 266.525 325.152C266.546 325.24 266.558 325.328 266.562 325.418C266.53 325.334 266.502 325.247 266.481 325.16C266.437 324.968 266.37 324.724 266.296 324.422C266.127 323.75 265.898 322.821 265.618 321.684C265.049 319.375 264.253 316.187 263.308 312.675C262.364 309.163 261.471 306.035 260.814 303.718L260.032 301.002C259.943 300.7 259.877 300.456 259.825 300.265C259.807 300.177 259.797 300.088 259.796 299.999Z" fill="#E0E0E0"/>
<path d="M263.493 318.238C262.73 316.58 261.581 315.127 260.144 314.001C258.707 312.874 257.022 312.106 255.23 311.76C254.322 311.59 253.2 311.627 252.699 312.409C252.197 313.192 252.64 314.225 253.193 314.977C254.374 316.519 255.986 317.676 257.825 318.301C259.664 318.926 261.647 318.992 263.523 318.489" fill="#EBEBEB"/>
<path d="M256.365 314.372C256.557 314.382 256.748 314.411 256.934 314.461C257.158 314.496 257.38 314.545 257.598 314.608C257.848 314.682 258.151 314.748 258.461 314.866C258.771 314.984 259.125 315.103 259.479 315.272C259.861 315.442 260.233 315.634 260.593 315.848C261.424 316.333 262.197 316.912 262.895 317.574C263.586 318.238 264.195 318.981 264.711 319.788C264.934 320.142 265.136 320.509 265.316 320.887C265.48 321.212 265.622 321.547 265.744 321.891C265.853 322.173 265.946 322.461 266.024 322.754C266.093 322.969 266.144 323.188 266.179 323.411C266.229 323.599 266.259 323.792 266.267 323.986C266.223 323.986 266.09 323.175 265.603 321.95C265.475 321.613 265.325 321.285 265.153 320.968C264.971 320.597 264.767 320.237 264.541 319.891C264.027 319.089 263.425 318.347 262.748 317.678C262.058 317.032 261.304 316.458 260.497 315.966C260.114 315.752 259.76 315.545 259.398 315.383C259.036 315.221 258.712 315.088 258.409 314.962C257.17 314.549 256.351 314.416 256.365 314.372Z" fill="#E0E0E0"/>
<path d="M310.487 268.559C308.772 266.896 307.146 265.142 305.617 263.306C303.996 261.551 302.467 259.714 301.035 257.801C304.375 261.217 307.53 264.808 310.487 268.559Z" fill="#E0E0E0"/>
<path d="M313.46 268.5C312.376 266.592 311.408 264.621 310.56 262.597C309.594 260.619 308.744 258.587 308.015 256.51C309.093 258.419 310.059 260.39 310.907 262.413C311.875 264.391 312.727 266.423 313.46 268.5Z" fill="#E0E0E0"/>
<path d="M317.408 257.056C317.526 257.056 316.759 259.505 316.397 262.597C316.036 265.689 316.183 268.212 316.065 268.219C315.917 267.681 315.847 267.125 315.859 266.567C315.798 265.224 315.85 263.879 316.014 262.545C316.174 261.215 316.443 259.899 316.818 258.613C316.94 258.068 317.139 257.544 317.408 257.056Z" fill="#E0E0E0"/>
<path d="M183.407 333.409C182.887 333.002 182.407 332.544 181.976 332.044C181.031 331.077 179.902 329.919 178.663 328.635L175.342 325.226C174.86 324.774 174.418 324.28 174.021 323.75C174.568 324.123 175.075 324.55 175.534 325.027C176.427 325.853 177.637 327.027 178.936 328.362C180.234 329.698 181.37 330.937 182.175 331.852C182.635 332.33 183.048 332.851 183.407 333.409Z" fill="#E0E0E0"/>
<path d="M188.334 333.652C186.919 331.755 185.603 329.785 184.394 327.75C183.078 325.78 181.868 323.74 180.771 321.64C182.19 323.537 183.507 325.508 184.719 327.543C186.034 329.512 187.241 331.552 188.334 333.652Z" fill="#E0E0E0"/>
<path d="M193.7 321.183C193.571 321.823 193.398 322.454 193.183 323.072C192.319 326.085 191.872 329.204 191.855 332.339C191.89 332.991 191.878 333.644 191.818 334.294C191.657 333.655 191.578 332.998 191.582 332.339C191.446 329.166 191.901 325.996 192.925 322.99C193.102 322.356 193.363 321.748 193.7 321.183Z" fill="#E0E0E0"/>
<path d="M316.225 91.7923C329.892 86.2732 336.498 70.7197 330.978 57.0526C325.459 43.3854 309.906 36.7802 296.239 42.2993C282.572 47.8184 275.966 63.3719 281.485 77.039C287.004 90.7061 302.558 97.3114 316.225 91.7923Z" fill="#E0E0E0"/>
<path d="M316.229 88.8484C329.896 83.3293 336.501 67.7758 330.982 54.1087C325.463 40.4416 309.91 33.8363 296.243 39.3554C282.575 44.8745 275.97 60.428 281.489 74.0951C287.008 87.7623 302.562 94.3675 316.229 88.8484Z" fill="#EBEBEB"/>
<path d="M306.237 82.0009C316.11 82.0009 324.115 73.9966 324.115 64.1228C324.115 54.2489 316.11 46.2446 306.237 46.2446C296.363 46.2446 288.358 54.2489 288.358 64.1228C288.358 73.9966 296.363 82.0009 306.237 82.0009Z" fill="white"/>
<path d="M312.747 69.9515C315.973 66.3531 315.672 60.8206 312.073 57.5942C308.475 54.3678 302.942 54.6694 299.716 58.2677C296.49 61.8661 296.791 67.3987 300.389 70.6251C303.988 73.8515 309.52 73.5499 312.747 69.9515Z" fill="#EBEBEB"/>
<path d="M327.701 41.5221L326.971 35.8259L332.77 29.6206L333.183 35.7669L327.701 41.5221Z" fill="#EBEBEB"/>
<path d="M340.141 36.9918L334.261 36.5122L328.365 42.1789L334.261 42.8135L340.141 36.9918Z" fill="#EBEBEB"/>
<path d="M333.714 34.2472L324.358 43.7286L309.505 58.7808C308.362 59.9318 307.225 61.0902 306.089 62.2413C304.953 63.3923 306.694 65.0304 307.779 63.931L317.142 54.4422L331.995 39.3974C333.131 38.2365 334.27 37.083 335.411 35.9369C336.489 34.8375 334.799 33.1478 333.714 34.2472Z" fill="#E0E0E0"/>
<path d="M235.551 39.5377C235.994 36.2986 231.419 33.6349 227.981 33.3472C226.336 33.2217 224.631 33.4726 223.082 32.9266C219.71 31.7534 218.367 27.4075 215.083 26.0203C212.626 24.9799 209.8 25.9022 207.417 27.1049C205.034 28.3076 202.68 29.8128 200.039 29.9826C197.722 30.1301 195.206 29.2447 193.184 30.4031C191.708 31.2443 190.882 32.9782 189.495 34.0038C188.107 35.0295 186.359 35.2213 184.669 35.3172C182.979 35.4131 181.238 35.4205 179.696 36.1289C178.154 36.8372 176.892 38.4531 177.209 40.1133L235.551 39.5377Z" fill="#EBEBEB"/>
<path d="M72.4265 57.2458C72.8471 54.1837 68.538 51.675 65.2915 51.4094C63.7494 51.284 62.1408 51.5201 60.6799 51.011C57.5071 49.9042 56.2528 45.846 53.1391 44.5031C50.8296 43.5292 48.1659 44.3924 45.9229 45.5213C43.6798 46.6503 41.4958 48.0743 38.9502 48.2366C36.7366 48.3768 34.405 47.5652 32.494 48.6277C31.0773 49.4246 30.3321 51.0626 29.0187 52.0292C27.7053 52.9958 26.0673 53.1729 24.4735 53.2614C22.8798 53.35 21.2417 53.3647 19.7882 53.9993C18.3346 54.6338 17.1467 56.2128 17.4418 57.7549L72.4265 57.2458Z" fill="#EBEBEB"/>
<path d="M134.708 18.5899C135.04 16.1845 131.646 14.2145 129.1 14.0079C127.883 13.9046 126.621 14.0964 125.47 13.6906C122.976 12.8199 121.98 9.60291 119.567 8.5773C117.752 7.83945 115.657 8.48876 113.893 9.38156C112.13 10.2744 110.388 11.3811 108.418 11.5066C106.699 11.6172 104.84 10.9827 103.342 11.8238C102.22 12.4436 101.637 13.7349 100.604 14.4949C99.5323 15.155 98.292 15.4907 97.0332 15.4615C95.7771 15.43 94.526 15.6326 93.344 16.0591C92.2077 16.583 91.2633 17.7857 91.4994 19.0105L134.708 18.5899Z" fill="#F5F5F5"/>
<path d="M78.5445 106.888C78.8766 104.49 75.4824 102.513 72.9369 102.306C71.7194 102.21 70.4577 102.395 69.3066 101.996C66.8127 101.126 65.8166 97.9013 63.4038 96.8757C61.5887 96.1378 59.4932 96.7945 57.7297 97.6799C55.9663 98.5654 54.2176 99.6869 52.2475 99.8123C50.5357 99.923 48.6763 99.2811 47.1785 100.122C46.0569 100.742 45.474 102.033 44.441 102.793C43.3607 103.45 42.1114 103.776 40.8477 103.73C39.5908 103.698 38.3391 103.903 37.1584 104.335C36.0222 104.852 35.0777 106.062 35.3138 107.287L78.5445 106.888Z" fill="#F5F5F5"/>
<path d="M295.744 10.3333C296.076 7.92792 292.682 5.95048 290.136 5.75126C288.919 5.64796 287.657 5.83242 286.506 5.43398C284.012 4.56332 283.016 1.34628 280.603 0.320672C278.788 -0.41718 276.693 0.232129 274.929 1.11755C273.166 2.00297 271.424 3.12451 269.454 3.24994C267.735 3.36062 265.876 2.72607 264.378 3.55984C263.256 4.18701 262.673 5.47087 261.64 6.23086C260.554 6.90288 259.295 7.24151 258.018 7.20482C256.761 7.17335 255.51 7.37602 254.328 7.80248C253.192 8.32636 252.248 9.52906 252.484 10.7539L295.744 10.3333Z" fill="#F5F5F5"/>
<path d="M252.116 80.2965C252.448 77.8911 249.054 75.921 246.508 75.7144C245.291 75.6185 244.029 75.803 242.878 75.3972C240.384 74.5339 239.388 71.3095 236.975 70.2838C235.153 69.546 233.057 70.1953 231.294 71.0881C229.531 71.9809 227.789 73.0877 225.819 73.2131C224.1 73.3238 222.241 72.6892 220.743 73.5304C219.629 74.1502 219.038 75.4414 218.013 76.2014C216.94 76.8596 215.7 77.1951 214.441 77.168C213.185 77.1376 211.934 77.3402 210.752 77.7657C209.616 78.2895 208.671 79.4922 208.908 80.7171L252.116 80.2965Z" fill="#F5F5F5"/>
<path d="M91.4492 144.999L125.353 109.951L134.857 113.168L168.097 168.949L187.761 179.006L204.584 227.918L152.949 225.247L91.4492 144.999Z" fill="white"/>
<path d="M359.023 208.328C359.06 208.424 278.974 239.06 180.168 276.735C81.3622 314.409 1.19468 344.89 1.15041 344.787C1.10614 344.683 81.1851 314.062 180.028 276.388C278.87 238.713 358.986 208.225 359.023 208.328Z" fill="#263238"/>
<path d="M292.521 29.3478C290.924 29.6933 289.292 29.8494 287.659 29.8126C285.274 29.7965 282.981 28.8885 281.232 27.267C279.328 25.3781 278.347 22.4857 276.259 20.8477C274.392 19.372 271.5 19.4458 269.485 20.6632V33.9446C270.504 33.1477 272.392 31.5318 275.277 32.9485C276.414 33.5092 277.439 34.1217 278.539 34.7783C281.623 36.6304 284.796 36.4828 288.042 35.0292C289.953 34.0838 291.638 32.7403 292.986 31.0891C293.93 30.0561 293.185 29.2076 292.521 29.3478Z" fill="#1A237E"/>
<path d="M269.485 18.0439C269.588 18.0439 269.677 24.6846 269.677 32.8379C269.677 40.9911 269.588 47.5949 269.485 47.5949C269.382 47.5949 269.293 40.9542 269.293 32.8379C269.293 24.7215 269.374 18.0439 269.485 18.0439Z" fill="#263238"/>
<path d="M347.041 129.851L328.477 121.727L277.698 48.7829L264.07 43.854L208.702 104.616L193.325 113.028L135.558 173.118L120.646 186.85L200.312 268.559L359.637 207.849V156.052L347.041 129.851Z" fill="white"/>
<path d="M277.697 48.7829L264.069 43.854L235.625 75.0651L265.043 51.1661L273.3 62.8906C273.595 62.7946 276.753 57.8363 276.753 57.8363C276.753 57.8363 291.51 68.6679 291.333 68.3728C291.156 68.0777 277.697 48.7829 277.697 48.7829Z" fill="white"/>
<path d="M135.816 173.605L201.47 122.494L228.188 116.318L248.472 60.9648L208.701 104.616L193.325 113.028L135.816 173.605Z" fill="#E0E0E0"/>
<path d="M328.477 121.727L342.82 134.846L359.636 156.051L347.041 129.85L328.477 121.727Z" fill="#E0E0E0"/>
<path d="M135.816 173.605L136.075 173.317L136.857 172.476L139.926 169.207L151.592 156.856L193.206 112.917L208.583 104.468H208.539L252.869 55.77C256.588 51.6823 260.265 47.6462 263.9 43.6618L263.981 43.5659L264.107 43.6102L277.735 48.5464H277.786L277.823 48.5907L328.558 121.572L328.499 121.527L347.048 129.644H347.085V129.681L355.652 147.596C356.626 149.662 357.378 151.248 357.865 152.325C358.109 152.856 358.301 153.262 358.434 153.535L358.618 153.956C358.618 153.956 358.537 153.823 358.404 153.55L357.814 152.347L355.519 147.64L346.871 129.769L346.923 129.821L328.351 121.704H328.314C315.033 102.601 297.325 77.2931 277.491 48.7973L277.58 48.8637L263.952 43.9348L264.158 43.8832L253.179 56.0873L208.827 104.734L193.406 113.175L193.45 113.138L151.769 156.981L140.037 169.274L136.931 172.505L136.134 173.332L135.816 173.605Z" fill="#263238"/>
<path d="M98.4735 116.311C96.5031 116.736 94.4901 116.932 92.4747 116.894C89.539 116.866 86.719 115.745 84.565 113.751C82.2186 111.426 81.0159 107.848 78.4408 105.848C76.1387 104.033 72.5823 104.129 70.0957 105.619V122.007C71.3574 121.018 73.6817 119.056 77.2307 120.782C78.6326 121.468 79.9017 122.221 81.252 122.996C85.0446 125.276 88.9552 125.091 92.947 123.306C94.4227 122.642 96.496 121.313 99.0416 118.451C100.2 117.182 99.2925 116.156 98.4735 116.311Z" fill="#1A237E"/>
<path d="M70.0961 102.395C70.2068 102.395 70.2954 110.548 70.2954 120.613C70.2954 130.677 70.2068 138.823 70.0961 138.823C69.9855 138.823 69.9043 130.669 69.9043 120.613C69.9043 110.556 69.9928 102.395 70.0961 102.395Z" fill="#263238"/>
<path d="M150.123 206.971L134.754 197.939L79.378 132.728L65.7499 138.018L27.935 220.075L9.37809 228.789L0 257.24L1.35027 344.122L53.3024 324.702L201.138 268.242L150.123 206.971Z" fill="white"/>
<path d="M27.9355 220.075L35.3141 215.64L42.8106 200.795L48.8094 205.325L67.1745 143.611L80.0647 133.436L79.3785 132.728L65.7504 138.018L27.9355 220.075Z" fill="#E0E0E0"/>
<path d="M65.7492 138.018L79.3773 132.728L107.821 166.226C107.821 166.226 84.3799 145.522 84.0774 145.522C84.0774 145.522 81.7679 153.285 81.4728 153.181C81.1776 153.078 67.4536 139.383 67.4536 139.383L61.8828 146.445L65.7492 138.018Z" fill="white"/>
<path d="M201.138 268.271C201.138 268.271 200.806 267.903 200.186 267.172L197.449 263.918C195.051 261.063 191.546 256.872 187.075 251.53L149.998 207.074L150.042 207.111L134.665 198.094C120.69 181.655 104.9 163.061 88.2396 143.449L79.2379 132.846L79.4518 132.905L65.8163 138.196L65.9196 138.092C51.229 169.938 38.1395 198.367 28.0605 220.134V220.178H28.0162L9.42236 228.892L9.48139 228.826L2.52345 249.781C1.71181 252.201 1.08464 254.068 0.664066 255.337L0.177085 256.761C0.0664068 257.086 0 257.241 0 257.241C0 257.241 0.0442713 257.078 0.14757 256.754C0.25087 256.429 0.405818 255.949 0.605038 255.315L2.41277 249.744C4.00653 244.867 6.33076 237.754 9.27479 228.76V228.715H9.31168L27.8613 219.972L27.8022 220.038L65.5802 137.937V137.871H65.654L79.2821 132.573L79.4592 132.507L79.5478 132.61L88.5126 143.161L134.901 197.836H134.857L150.227 206.875L187.2 251.389L197.515 263.844L200.216 267.12L201.138 268.271Z" fill="#263238"/>
<path d="M60.5997 288.097L65.8606 265.556L89.5161 229.77L108.213 225.195L133.263 252.953L155.569 258.59L189.746 272.853L47.3848 327.159L49.8713 308.263L60.5997 288.097Z" fill="#F5F5F5"/>
<path d="M60.5988 288.09C60.5988 288.09 60.3701 288.547 59.9126 289.433L57.8614 293.358L49.9442 308.307C49.2507 313.671 48.4243 320.031 47.4872 327.203L47.3249 327.078L184.255 274.764L189.656 272.706V273.06L155.479 258.797L133.181 253.145H133.13V253.101L108.094 225.336L108.249 225.38L89.5521 229.903L89.6406 229.844L65.9409 265.607L61.986 282.364C61.5285 284.253 61.1891 285.692 60.953 286.666C60.7169 287.64 60.5914 288.141 60.5914 288.141C60.5914 288.141 60.6874 287.647 60.9087 286.666C61.1301 285.684 61.4621 284.246 61.8901 282.342C62.7755 278.535 64.1036 272.897 65.7638 265.578L89.375 229.763V229.718H89.434L108.124 225.129H108.212L108.279 225.195L133.366 252.939L133.321 252.776L155.627 258.413L189.819 272.698L190.261 272.883L189.811 273.06L184.403 275.118L47.4282 327.299L47.2363 327.373V327.174C48.1882 320.002 49.0367 313.642 49.7524 308.285V308.248L57.7359 293.321C58.6583 291.624 59.3592 290.325 59.8314 289.44C60.3037 288.555 60.5988 288.09 60.5988 288.09Z" fill="#263238"/>
<path d="M302.616 214.813C303.206 215.287 303.75 215.816 304.239 216.392C305.477 217.73 306.635 219.14 307.707 220.613C308.777 222.083 309.762 223.613 310.659 225.195C311.067 225.833 311.406 226.514 311.67 227.224C311.214 226.623 310.8 225.992 310.43 225.335C309.692 224.162 308.622 222.554 307.368 220.842C306.114 219.13 304.904 217.632 304.011 216.57C303.506 216.017 303.041 215.43 302.616 214.813Z" fill="#263238"/>
<path d="M309.228 208.151C309.521 209.025 309.767 209.914 309.965 210.815C310.401 212.467 311.043 214.733 311.854 217.212C312.666 219.691 313.478 221.904 314.068 223.498C314.431 224.35 314.744 225.222 315.005 226.11C314.852 225.911 314.73 225.689 314.643 225.454C314.437 225.026 314.156 224.391 313.817 223.601C313.146 222.022 312.29 219.816 311.471 217.33C310.652 214.843 310.054 212.548 309.685 210.881C309.501 210.04 309.36 209.361 309.287 208.889C309.232 208.647 309.212 208.398 309.228 208.151Z" fill="#263238"/>
<path d="M320.369 212.423C320.42 212.423 320.059 213.043 319.682 214.083C319.204 215.437 318.933 216.854 318.878 218.289C318.878 219.978 318.76 221.535 318.826 222.627C318.9 223.225 318.937 223.826 318.937 224.428C318.72 223.858 318.591 223.258 318.553 222.649C318.448 221.193 318.428 219.732 318.494 218.274C318.546 216.798 318.864 215.343 319.431 213.98C319.633 213.402 319.952 212.871 320.369 212.423Z" fill="#263238"/>
<path d="M111.314 304.101C110.201 302.851 108.979 301.703 107.661 300.67C106.259 299.744 104.778 298.944 103.234 298.279C103.744 298.313 104.244 298.438 104.71 298.648C105.842 299.073 106.912 299.649 107.89 300.36C108.872 301.063 109.754 301.897 110.51 302.839C110.847 303.211 111.119 303.638 111.314 304.101Z" fill="#263238"/>
<path d="M111.321 288.739C111.388 288.739 111.255 289.558 111.233 290.871C111.214 292.579 111.44 294.281 111.904 295.925C112.379 297.568 113.093 299.131 114.022 300.567C114.759 301.666 115.276 302.286 115.224 302.33C115.064 302.221 114.92 302.089 114.796 301.939C114.432 301.559 114.097 301.152 113.793 300.721C111.755 297.851 110.756 294.371 110.96 290.856C110.993 290.331 111.062 289.808 111.166 289.292C111.186 289.1 111.239 288.913 111.321 288.739Z" fill="#263238"/>
<path d="M118.943 292.62C118.831 293.022 118.693 293.416 118.53 293.801C118.224 294.754 118.084 295.752 118.117 296.752C118.15 297.742 118.355 298.718 118.722 299.637C118.913 300.008 119.076 300.393 119.209 300.788C119.172 300.788 118.833 300.456 118.471 299.748C118.017 298.828 117.766 297.822 117.733 296.796C117.696 295.758 117.882 294.724 118.279 293.764C118.405 293.334 118.633 292.942 118.943 292.62Z" fill="#263238"/>
<path d="M42.8782 293.21C43.7288 293.133 44.5861 293.229 45.3988 293.492C46.2115 293.754 46.9629 294.178 47.6079 294.738C48.8943 295.869 49.904 297.28 50.5593 298.862C51.9095 301.865 51.9907 305.658 51.5996 308.934C47.9989 308.262 45.3131 304.979 44.0588 303.223C42.074 300.449 40.1703 294.229 42.8856 293.21" fill="#1A237E"/>
<path d="M57.1028 311.952C56.4647 311.243 56.0255 310.379 55.8298 309.446C55.6342 308.512 55.6889 307.544 55.9886 306.639C56.2987 305.741 56.7846 304.914 57.418 304.205C58.0515 303.497 58.8197 302.922 59.6779 302.515C60.0529 302.284 60.4739 302.139 60.9113 302.089C61.3486 302.039 61.7916 302.086 62.2087 302.227C62.5743 302.419 62.8812 302.706 63.0969 303.058C63.3125 303.41 63.4288 303.814 63.4335 304.226C63.4392 305.054 63.2254 305.869 62.8138 306.587C61.5225 309.089 59.8107 311.28 57.0733 311.959" fill="#1A237E"/>
<path d="M59.1694 322.393C59.0668 322.191 58.9804 321.981 58.9112 321.765L58.2766 320.031C57.508 318.133 57.0544 316.122 56.9337 314.077C56.8405 312.014 57.299 309.964 58.2618 308.137C58.5671 307.606 58.9309 307.111 59.3465 306.662C59.4867 306.499 59.6195 306.389 59.7007 306.307C59.7818 306.226 59.8335 306.189 59.8408 306.197C59.2961 306.833 58.8166 307.523 58.4094 308.255C57.5104 310.07 57.084 312.083 57.1698 314.106C57.2965 316.126 57.7217 318.115 58.4315 320.009C58.6824 320.747 58.8743 321.352 58.9997 321.773C59.0742 321.974 59.131 322.181 59.1694 322.393Z" fill="#263238"/>
<path d="M44.7812 297.785C44.8455 297.86 44.9046 297.939 44.9583 298.021C45.0764 298.206 45.2387 298.434 45.4306 298.722C45.8364 299.335 46.4119 300.198 47.1202 301.334C48.5295 303.548 50.4332 306.632 52.4549 310.093C54.4766 313.553 56.2475 316.733 57.4871 319.035C58.1142 320.186 58.6086 321.131 58.9628 321.78L59.3391 322.518C59.3892 322.604 59.4289 322.696 59.4571 322.791C59.3965 322.716 59.3445 322.634 59.3022 322.547L58.8816 321.81C58.5053 321.146 57.9962 320.223 57.3616 319.102C56.0851 316.807 54.2995 313.656 52.2778 310.196C50.2561 306.735 48.3156 303.688 46.9432 301.474L45.3199 298.826C45.1428 298.53 45.0026 298.287 44.8845 298.088C44.8361 297.992 44.8014 297.89 44.7812 297.785Z" fill="#263238"/>
<path d="M54.0119 316.098C52.7125 314.555 51.0628 313.344 49.2004 312.567C47.338 311.791 45.3169 311.471 43.3057 311.634C42.2874 311.723 41.0921 312.084 40.8044 313.066C40.5166 314.047 41.2766 315.014 42.0808 315.648C43.7828 316.939 45.8285 317.698 47.9606 317.829C50.0927 317.96 52.216 317.458 54.0635 316.386" fill="#1A237E"/>
<path d="M45.3047 314.077C45.5106 314.03 45.7208 314.006 45.9319 314.003C46.1767 313.974 46.4232 313.962 46.6697 313.966C46.9991 313.949 47.3291 313.949 47.6584 313.966C48.0615 313.988 48.463 314.032 48.8611 314.099C49.3188 314.166 49.7722 314.259 50.2188 314.379C51.2438 314.651 52.2341 315.04 53.1702 315.538C54.1004 316.049 54.9672 316.668 55.7527 317.382C56.3849 317.972 56.9605 318.619 57.4719 319.316C57.7006 319.611 57.8555 319.906 58.0179 320.149C58.1514 320.361 58.2721 320.58 58.3794 320.806C58.4863 320.99 58.5729 321.186 58.6377 321.389C58.5934 321.389 58.2097 320.585 57.3317 319.419C57.1021 319.101 56.8558 318.796 56.5938 318.504C56.2902 318.166 55.9675 317.846 55.6272 317.545C54.8486 316.854 53.9947 316.252 53.0816 315.752C52.1629 315.259 51.193 314.868 50.1893 314.586C49.7244 314.468 49.2817 314.357 48.8538 314.291C48.4659 314.217 48.0742 314.165 47.6806 314.136C46.2122 314.018 45.3047 314.128 45.3047 314.077Z" fill="#263238"/>
<path d="M349.38 104.933C345.193 105.841 340.914 106.257 336.63 106.173C330.55 105.922 324.337 103.959 319.807 99.4953C314.812 94.5517 312.244 86.9519 306.777 82.6723C301.877 78.8207 294.307 78.9831 289.031 82.1853V117.012C291.702 114.924 296.653 110.696 304.194 114.415C307.182 115.89 309.876 117.477 312.753 119.203C320.818 124.051 329.133 123.63 337.634 119.86C340.806 118.451 345.174 115.632 350.59 109.53C353.055 106.793 351.121 104.601 349.38 104.933Z" fill="#1A237E"/>
<path d="M289.489 234.699V81.7647C289.489 79.7135 289.533 77.6549 289.489 75.5963V75.338C289.474 75.2258 289.42 75.1226 289.335 75.0477C289.25 74.9729 289.141 74.9316 289.028 74.9316C288.914 74.9316 288.805 74.9729 288.72 75.0477C288.635 75.1226 288.581 75.2258 288.566 75.338V227.793C288.566 229.97 288.566 232.154 288.566 234.33V234.699C288.581 234.811 288.635 234.915 288.72 234.989C288.805 235.064 288.914 235.106 289.028 235.106C289.141 235.106 289.25 235.064 289.335 234.989C289.42 234.915 289.474 234.811 289.489 234.699Z" fill="#263238"/>
<path d="M149.865 80.4291L149.031 75.1977C151.674 70.8997 152.613 65.7686 151.665 60.8131C150.716 55.8575 147.948 51.436 143.905 48.4176C139.862 45.3992 134.836 44.0024 129.816 44.5015C124.795 45.0007 120.143 47.3599 116.773 51.1153C113.403 54.8707 111.56 59.7507 111.606 64.796C111.652 69.8413 113.584 74.6869 117.021 78.3804C120.458 82.0738 125.153 84.348 130.182 84.7558C135.211 85.1636 140.21 83.6755 144.198 80.584L149.865 80.4291Z" fill="white"/>
<path d="M149.865 80.4293H149.511L148.434 80.481L144.191 80.6507C144.181 80.6517 144.17 80.6506 144.16 80.6473C144.151 80.6441 144.142 80.6388 144.134 80.6318C144.126 80.6249 144.12 80.6164 144.116 80.6069C144.112 80.5975 144.11 80.5872 144.11 80.5769C144.105 80.5599 144.105 80.5422 144.11 80.5252L144.22 80.6285C141.63 82.6758 138.573 84.0498 135.322 84.6277C133.191 84.9995 131.015 85.0369 128.873 84.7384C126.436 84.3824 124.084 83.5874 121.93 82.392C119.558 81.0496 117.472 79.2547 115.791 77.109C113.957 74.7902 112.659 72.094 111.991 69.214C111.287 66.1475 111.287 62.9613 111.991 59.8949C112.75 56.6789 114.297 53.702 116.492 51.2325C117.599 49.9671 118.856 48.8399 120.233 47.8753C120.934 47.4326 121.635 46.9825 122.358 46.5988L123.472 46.0749L124.025 45.8167L124.601 45.6101C127.58 44.5036 130.774 44.0971 133.935 44.4222C136.904 44.7398 139.763 45.7207 142.302 47.2924C144.647 48.7266 146.684 50.6127 148.293 52.841C149.731 54.8469 150.794 57.0969 151.429 59.4817C151.547 60.0499 151.665 60.6106 151.776 61.164C151.887 61.7174 151.909 62.2634 151.975 62.802C152.078 63.8418 152.093 64.8883 152.02 65.9305C151.807 69.2096 150.794 72.3866 149.068 75.1832V75.1315C149.319 76.8212 149.511 78.1346 149.644 79.0421C149.703 79.4701 149.754 79.78 149.784 80.0456C149.813 80.3112 149.828 80.3777 149.828 80.3777C149.828 80.3777 149.828 80.2522 149.754 80.0235C149.681 79.7948 149.651 79.4406 149.577 79.0053C149.422 78.1125 149.201 76.7917 148.913 75.1537C148.91 75.1366 148.91 75.1191 148.913 75.102C150.598 72.317 151.583 69.1648 151.783 65.9158C151.849 64.8852 151.827 63.851 151.717 62.8242C151.651 62.3003 151.621 61.7543 151.51 61.2083C151.4 60.6623 151.282 60.1163 151.156 59.5555C149.82 54.5606 146.602 50.2769 142.177 47.6023C139.682 46.0627 136.873 45.1067 133.957 44.8058C130.853 44.4865 127.717 44.888 124.793 45.979L124.232 46.1782L123.686 46.4365L122.594 46.953C121.856 47.3293 121.2 47.772 120.506 48.2073C119.15 49.1545 117.912 50.2592 116.817 51.4982C114.66 53.9214 113.139 56.8421 112.39 59.9982C111.685 63.0032 111.67 66.1285 112.345 69.1402C112.986 71.9709 114.246 74.6244 116.035 76.9098C117.681 79.0257 119.727 80.798 122.055 82.1264C124.174 83.3118 126.488 84.1065 128.888 84.4727C131.001 84.7788 133.15 84.7539 135.256 84.3989C138.477 83.8428 141.515 82.5135 144.11 80.5252C144.125 80.5112 144.145 80.5034 144.165 80.5034C144.186 80.5034 144.205 80.5112 144.22 80.5252C144.232 80.5386 144.238 80.5556 144.238 80.5732C144.238 80.5908 144.232 80.6078 144.22 80.6211L144.161 80.4957L148.352 80.4145H149.452L149.865 80.4293Z" fill="#263238"/>
<path d="M142.914 45.4399H120.778C120.704 45.6318 119.229 66.2031 131.846 66.5941C144.478 66.1957 143.002 45.6244 142.914 45.4399Z" fill="#1A237E"/>
<path d="M144.323 43.4185H119.377C118.822 43.4185 118.373 43.8677 118.373 44.4219V45.0122C118.373 45.5664 118.822 46.0157 119.377 46.0157H144.323C144.877 46.0157 145.327 45.5664 145.327 45.0122V44.4219C145.327 43.8677 144.877 43.4185 144.323 43.4185Z" fill="#1A237E"/>
<path d="M124.933 63.0524C120.941 62.0046 118.248 59.0975 117.156 54.6335C116.662 52.5518 116.513 50.4033 116.713 48.2732L116.795 47.6387H122.469V49.1144H118.108C118.017 50.8742 118.176 52.638 118.58 54.3531C119.554 58.2932 121.819 60.7577 125.302 61.6726L124.933 63.0524Z" fill="#1A237E"/>
<path d="M138.738 63.0528L138.369 61.6508C141.874 60.7359 144.139 58.2567 145.106 54.2723C145.501 52.5808 145.658 50.8423 145.571 49.1074H141.21V47.6538H146.884L146.965 48.2884C147.166 50.4188 147.014 52.5677 146.515 54.6486C145.43 59.0979 142.737 62.005 138.738 63.0528Z" fill="#1A237E"/>
<path d="M134.06 67.8045C133.66 66.3586 133.413 64.8748 133.322 63.3774H130.37C130.279 64.8748 130.032 66.3586 129.633 67.8045C127.987 74.4452 122.092 74.8215 122.092 74.8215V76.703H141.571V74.8215C141.571 74.8215 135.705 74.46 134.06 67.8045Z" fill="#1A237E"/>
<path d="M143.652 45.9272C143.652 46.0305 138.414 46.119 131.965 46.119C125.516 46.119 120.277 46.0305 120.277 45.9272C120.277 45.8239 125.509 45.7354 131.965 45.7354C138.421 45.7354 143.652 45.8239 143.652 45.9272Z" fill="#263238"/>
<path d="M140.701 60.1972C140.626 60.4905 140.52 60.7749 140.384 61.0457C140.021 61.7908 139.573 62.4915 139.049 63.1339C138.253 64.0872 137.278 64.8744 136.178 65.4507C134.82 66.1431 133.312 66.4903 131.788 66.4616C130.263 66.4693 128.76 66.0911 127.42 65.3622C126.345 64.7464 125.402 63.9239 124.646 62.942C124.133 62.2927 123.683 61.596 123.303 60.8613C123.147 60.6025 123.026 60.3248 122.941 60.0349C123.008 59.9906 123.546 61.1786 124.852 62.7723C125.618 63.6928 126.546 64.4655 127.59 65.0523C128.881 65.7454 130.323 66.1102 131.788 66.1148C133.253 66.1404 134.702 65.8166 136.016 65.1703C137.086 64.6161 138.043 63.8652 138.835 62.9568C139.541 62.0964 140.166 61.1726 140.701 60.1972Z" fill="#263238"/>
<path opacity="0.3" d="M132.444 51.3431L133.182 52.9C133.229 52.9949 133.299 53.0768 133.385 53.1385C133.471 53.2002 133.571 53.2399 133.676 53.2541L135.395 53.505C135.515 53.5223 135.628 53.5727 135.72 53.6506C135.813 53.7286 135.882 53.8309 135.92 53.946C135.957 54.0612 135.962 54.1845 135.933 54.3022C135.904 54.4198 135.843 54.5271 135.757 54.6118L134.539 55.7702C134.463 55.8432 134.406 55.9341 134.374 56.0346C134.342 56.1351 134.335 56.242 134.355 56.3457L134.65 58.0575C134.669 58.1777 134.655 58.3009 134.608 58.4132C134.561 58.5256 134.484 58.6229 134.385 58.694C134.287 58.7652 134.17 58.8075 134.049 58.8163C133.927 58.8251 133.806 58.8 133.698 58.7437L132.163 57.9321C132.07 57.8847 131.966 57.8601 131.861 57.8601C131.756 57.8601 131.652 57.8847 131.558 57.9321L130.024 58.7437C129.916 58.8 129.794 58.8251 129.673 58.8163C129.551 58.8075 129.435 58.7652 129.336 58.694C129.237 58.6229 129.16 58.5256 129.114 58.4132C129.067 58.3009 129.052 58.1777 129.072 58.0575L129.367 56.3457C129.386 56.242 129.38 56.1351 129.348 56.0346C129.315 55.9341 129.259 55.8432 129.182 55.7702L127.935 54.5527C127.849 54.468 127.788 54.3608 127.759 54.2431C127.73 54.1255 127.735 54.0021 127.772 53.887C127.81 53.7719 127.879 53.6696 127.972 53.5916C128.064 53.5137 128.177 53.4632 128.297 53.446L130.016 53.1951C130.121 53.1809 130.221 53.1412 130.307 53.0795C130.394 53.0177 130.463 52.9358 130.511 52.8409L131.248 51.2841C131.304 51.1689 131.392 51.0726 131.502 51.0073C131.611 50.942 131.738 50.9105 131.866 50.9168C131.993 50.9231 132.116 50.9669 132.219 51.0427C132.322 51.1186 132.4 51.223 132.444 51.3431Z" fill="white"/>
<path d="M141.224 74.9028C141.224 75.0061 136.907 75.0946 131.588 75.0946C126.268 75.0946 121.951 75.0061 121.951 74.9028C121.951 74.7995 126.26 74.7109 131.588 74.7109C136.915 74.7109 141.224 74.7921 141.224 74.9028Z" fill="#263238"/>
<path d="M233.589 143.021C233.825 143.021 236.541 142.748 237.101 141.981C237.254 141.712 237.339 141.411 237.35 141.103C237.36 140.794 237.295 140.488 237.16 140.21C237.7 139.773 238.077 139.168 238.23 138.491C238.245 137.789 238.036 137.102 237.633 136.528L237.898 135.65C238.034 135.348 238.084 135.015 238.043 134.687C238.001 134.359 237.869 134.049 237.662 133.791C237.101 133.398 236.676 132.841 236.445 132.197C236.179 131.238 233.183 130.839 231.73 130.551C230.276 130.264 228.328 129.85 226.838 131.658C224.838 134.086 221.459 137.915 221.459 137.915L224.307 145.692C224.307 145.692 225.584 146.43 228.424 145.744C230.312 145.195 232.069 144.269 233.589 143.021Z" fill="#B06B5A"/>
<path d="M231.922 141.501L251.667 249.095L252.478 248.822L234.084 139.686L231.922 141.501Z" fill="#455A64"/>
<path d="M230.535 137.317C230.535 137.317 229.103 133.185 227.458 131.57C225.812 129.954 224.337 129.238 226.122 128.035C227.908 126.833 232.401 125.084 232.903 126.441C233.405 127.799 232.778 127.179 232.586 128.279C232.394 129.378 234.46 134.145 235.058 136.1C235.655 138.055 237.921 144.216 237.102 144.718C236.519 145.065 233.619 145.382 232.032 145.537C231.897 145.55 231.76 145.536 231.63 145.495C231.5 145.453 231.379 145.386 231.276 145.297C231.173 145.208 231.088 145.099 231.028 144.977C230.968 144.855 230.933 144.721 230.926 144.585L230.535 137.317Z" fill="#263238"/>
<path d="M240.525 138.048C240.244 136.446 239.564 134.94 238.548 133.67C237.532 132.4 236.212 131.406 234.711 130.78C231.022 129.305 231.524 129.887 231.524 129.887L231.11 131.444C235.855 131.238 237.751 135.193 238.327 136.034C239.064 137.089 239.581 139.62 238.607 140.195C237.633 140.771 235.464 139.634 235.464 139.634L234.231 140.549C234.231 140.549 237.64 142.49 239.182 142.483C240.725 142.475 241.049 140.867 240.525 138.048Z" fill="#263238"/>
<path d="M243.734 191.291C243.746 191.633 243.656 191.97 243.476 192.26C243.296 192.55 243.034 192.78 242.723 192.921C242.412 193.062 242.067 193.108 241.73 193.053C241.393 192.998 241.08 192.844 240.83 192.611C240.581 192.378 240.406 192.076 240.328 191.744C240.25 191.412 240.272 191.064 240.392 190.744C240.512 190.424 240.723 190.147 241 189.948C241.278 189.748 241.608 189.636 241.949 189.624C242.406 189.61 242.851 189.777 243.185 190.09C243.52 190.402 243.717 190.834 243.734 191.291Z" fill="#455A64"/>
<path d="M249.697 225.616C249.696 225.905 249.611 226.187 249.452 226.428C249.293 226.669 249.067 226.858 248.801 226.971C248.536 227.085 248.243 227.118 247.959 227.067C247.675 227.015 247.412 226.882 247.203 226.683C246.994 226.484 246.848 226.228 246.783 225.947C246.718 225.665 246.737 225.371 246.837 225.101C246.938 224.83 247.115 224.595 247.348 224.424C247.581 224.254 247.859 224.155 248.147 224.141C248.347 224.131 248.547 224.161 248.734 224.231C248.922 224.301 249.094 224.408 249.239 224.546C249.383 224.684 249.499 224.85 249.578 225.034C249.656 225.218 249.697 225.416 249.697 225.616Z" fill="#455A64"/>
<path d="M236.836 136.683C235.87 137.029 234.867 137.259 233.848 137.369C233.375 137.421 232.903 137.443 232.431 137.539C231.959 137.613 231.512 137.803 231.132 138.092C230.943 138.237 230.787 138.42 230.674 138.63C230.562 138.84 230.497 139.072 230.483 139.31C230.476 139.549 230.543 139.785 230.675 139.984C230.807 140.184 230.998 140.337 231.221 140.424C231 140.54 230.826 140.729 230.729 140.96C230.632 141.19 230.618 141.446 230.69 141.686C230.77 141.923 230.902 142.139 231.077 142.317C231.252 142.496 231.465 142.633 231.7 142.719C232.173 142.89 232.673 142.972 233.176 142.962C233.918 142.988 234.66 142.931 235.39 142.793C236.03 142.697 236.621 142.394 237.072 141.929C237.285 141.691 237.408 141.385 237.418 141.066C237.429 140.746 237.328 140.433 237.131 140.181C237.531 139.856 237.795 139.392 237.869 138.882" fill="#844E42"/>
<path d="M230.756 137.17C230.491 137.054 230.267 136.86 230.115 136.613C229.963 136.367 229.891 136.079 229.908 135.79C229.989 135.126 230.645 134.691 231.273 134.447C232.794 133.956 234.389 133.729 235.988 133.776L236.762 134.241C236.933 134.553 237.057 134.889 237.131 135.237C237.167 135.411 237.164 135.59 237.122 135.762C237.08 135.935 237 136.095 236.888 136.233C236.635 136.462 236.323 136.615 235.988 136.676C235.002 137.013 233.983 137.238 232.948 137.347C232.213 137.441 231.466 137.381 230.756 137.17Z" fill="#844E42"/>
<path d="M237.161 140.21C236.626 140.134 236.085 140.112 235.545 140.143C234.549 140.143 233.169 140.143 231.649 140.21H231.081H230.911C230.839 140.229 230.772 140.267 230.72 140.32C230.636 140.408 230.575 140.514 230.543 140.63C230.478 140.999 230.499 141.377 230.602 141.737C230.683 142.077 230.888 142.374 231.177 142.571C231.414 142.734 231.679 142.852 231.959 142.918C232.349 143.02 232.752 143.065 233.154 143.051C233.442 143.051 233.597 143.014 233.59 142.991C233.582 142.969 232.963 142.991 232.033 142.689C231.771 142.636 231.528 142.512 231.33 142.332C231.132 142.151 230.988 141.92 230.911 141.663C230.824 141.359 230.809 141.038 230.867 140.726C230.875 140.665 230.904 140.608 230.948 140.564C231 140.527 230.948 140.564 231.096 140.564H231.664C233.184 140.52 234.556 140.453 235.553 140.394C236.094 140.39 236.633 140.328 237.161 140.21Z" fill="#B06B5A"/>
<path d="M237.633 136.528C237.179 136.516 236.726 136.558 236.283 136.653C235.456 136.771 234.305 136.963 233.036 137.185H232.933C232.279 137.195 231.64 137.378 231.081 137.716C230.846 137.864 230.654 138.072 230.524 138.318C230.395 138.564 230.332 138.84 230.343 139.118C230.368 139.479 230.493 139.827 230.705 140.121C230.852 140.321 230.963 140.409 230.978 140.394C230.992 140.38 230.926 140.261 230.823 140.055C230.67 139.766 230.589 139.445 230.586 139.118C230.59 138.886 230.653 138.659 230.769 138.459C230.885 138.259 231.051 138.092 231.251 137.974C231.767 137.685 232.348 137.531 232.94 137.524H233.103C234.364 137.295 235.508 137.067 236.327 136.89C236.775 136.823 237.214 136.702 237.633 136.528Z" fill="#B06B5A"/>
<path d="M237.662 133.791C237.008 133.977 236.373 134.224 235.766 134.528H235.817C234.733 134.528 233.264 134.528 231.656 134.528H230.623H230.542L230.497 134.58C230.247 134.861 230.047 135.183 229.907 135.532C229.769 135.87 229.75 136.245 229.855 136.594C229.904 136.758 229.988 136.909 230.102 137.036C230.215 137.164 230.355 137.265 230.512 137.332C230.748 137.429 230.996 137.488 231.25 137.509C231.617 137.54 231.986 137.525 232.349 137.465C232.6 137.421 232.74 137.376 232.733 137.354C232.726 137.332 232.165 137.406 231.257 137.288C230.837 137.229 230.232 137.081 230.084 136.55C230.04 136.242 230.071 135.927 230.177 135.633C230.282 135.34 230.458 135.077 230.689 134.868L230.571 134.919H231.611C233.22 134.919 234.681 134.875 235.773 134.831H235.884C236.507 134.539 237.102 134.191 237.662 133.791Z" fill="#B06B5A"/>
<path d="M223.702 137.531C223.702 137.531 227.347 132.079 227.524 131.99C227.701 131.902 233.538 131.149 234.903 131.739C236.268 132.329 237.854 133.171 237.854 133.171C237.854 133.171 238.053 134.646 235.729 134.779C233.405 134.912 230.992 134.831 230.992 134.831L229.723 136.69C229.723 136.69 230.24 141.663 225.835 143.065" fill="#B06B5A"/>
<path d="M225.812 143.066C226 143.017 226.185 142.958 226.366 142.888C226.587 142.813 226.8 142.714 227 142.593C227.27 142.452 227.527 142.286 227.768 142.099C228.418 141.533 228.924 140.819 229.243 140.018C229.667 138.97 229.848 137.84 229.775 136.713V136.801L231.058 134.949L230.94 135.016C232.062 135.016 233.25 135.016 234.497 135.016C235.139 135.017 235.78 134.973 236.415 134.883C236.756 134.815 237.079 134.674 237.36 134.47C237.659 134.25 237.864 133.926 237.935 133.562C237.954 133.437 237.954 133.31 237.935 133.186V133.105H237.854L236.238 132.322L235.449 131.939C235.19 131.801 234.921 131.685 234.644 131.592C234.084 131.475 233.512 131.425 232.94 131.444C232.387 131.444 231.855 131.444 231.331 131.496C230.284 131.57 229.302 131.673 228.38 131.791L227.694 131.894H227.524H227.421L227.325 131.983C227.244 132.086 227.185 132.16 227.118 132.256L226.417 133.274C225.532 134.573 224.838 135.643 224.359 136.381L223.82 137.237C223.753 137.334 223.697 137.438 223.65 137.546C223.733 137.463 223.807 137.372 223.872 137.273L224.462 136.447L226.594 133.4L227.332 132.396L227.524 132.153C227.524 132.153 227.524 132.153 227.524 132.094C227.561 132.167 227.561 132.145 227.561 132.145H227.605H227.76L228.432 132.049C229.347 131.939 230.335 131.85 231.383 131.791C231.907 131.791 232.438 131.74 232.977 131.74C233.519 131.729 234.061 131.778 234.593 131.887C234.846 131.983 235.093 132.096 235.331 132.227L236.113 132.61L237.714 133.385L237.633 133.267C237.646 133.357 237.646 133.449 237.633 133.54C237.552 133.827 237.386 134.083 237.157 134.274C236.928 134.465 236.646 134.582 236.349 134.61C235.733 134.699 235.112 134.743 234.489 134.743C233.257 134.743 232.069 134.743 230.955 134.743H230.874L230.83 134.802C230.394 135.451 229.966 136.071 229.568 136.668V136.705V136.757C229.646 137.844 229.485 138.934 229.096 139.952C228.794 140.733 228.314 141.433 227.694 141.996C227.111 142.425 226.479 142.784 225.812 143.066Z" fill="#B06B5A"/>
<path d="M221.909 136.41L200.349 139.635L194.394 119.1L187.186 149.824L191.613 152.835C192.982 153.759 194.538 154.371 196.17 154.626C197.803 154.881 199.471 154.773 201.057 154.31L225.576 147.67L221.909 136.41Z" fill="#1A237E"/>
<path d="M186.448 107.346L188.514 107.442L189.679 107.922C193.314 114.405 195.391 121.645 195.744 129.069L196.091 137.023L195.973 187.123L179.003 184.776L176.855 170.226L186.448 107.346Z" fill="#1A237E"/>
<path opacity="0.3" d="M195.465 183.551C195.465 183.551 195.465 166.853 195.591 160.515C195.716 154.177 193.775 131.237 193.775 131.237C193.775 131.237 186.64 177.965 186.891 178.039C187.142 178.113 195.465 183.551 195.465 183.551Z" fill="black"/>
<path d="M193.287 118.384C193.341 118.498 193.383 118.617 193.413 118.738C193.486 119.019 193.582 119.358 193.693 119.771C193.914 120.686 194.187 121.985 194.431 123.667C194.933 126.973 195.272 131.584 195.515 136.676C195.759 141.767 195.862 146.371 195.995 149.706C196.069 151.329 196.128 152.657 196.172 153.654C196.172 154.082 196.209 154.436 196.224 154.723C196.237 154.849 196.237 154.975 196.224 155.1C196.181 154.981 196.157 154.857 196.15 154.731C196.15 154.443 196.076 154.089 196.032 153.661C195.936 152.731 195.833 151.388 195.729 149.721C195.53 146.386 195.368 141.774 195.139 136.69C194.91 131.607 194.6 127.01 194.173 123.704C193.966 122.051 193.737 120.753 193.568 119.808L193.346 118.753C193.307 118.634 193.287 118.51 193.287 118.384Z" fill="#263238"/>
<path d="M162.955 271.96L161.774 281.191L161.922 282.379C161.922 282.379 176.826 285.293 177.417 287.861L150.249 292.288L149.201 286.053L150.677 270.846L162.955 271.96Z" fill="#263238"/>
<path d="M153.334 282.6C153.086 282.722 152.892 282.931 152.789 283.187C152.685 283.443 152.68 283.728 152.774 283.988C152.884 284.241 153.089 284.443 153.345 284.549C153.601 284.655 153.888 284.657 154.146 284.556C154.409 284.426 154.614 284.203 154.722 283.93C154.83 283.658 154.832 283.354 154.729 283.08C154.586 282.831 154.353 282.648 154.077 282.568C153.802 282.488 153.507 282.518 153.253 282.652" fill="#E0E0E0"/>
<path d="M150.241 292.325L149.961 290.112L176.118 286.718C176.118 286.718 177.416 287.05 177.416 287.92L150.241 292.325Z" fill="#455A64"/>
<path d="M162.343 282.195C162.343 282.328 161.708 282.497 161.126 283.029C160.543 283.56 160.284 284.18 160.152 284.143C160.019 284.106 160.093 283.316 160.816 282.667C161.539 282.018 162.35 282.069 162.343 282.195Z" fill="white"/>
<path d="M165.382 282.91C165.434 283.036 164.895 283.353 164.541 283.988C164.187 284.622 164.143 285.234 164.01 285.249C163.877 285.264 163.671 284.511 164.136 283.774C164.6 283.036 165.36 282.785 165.382 282.91Z" fill="white"/>
<path d="M167.56 286.054C167.442 286.105 167.147 285.471 167.376 284.689C167.604 283.907 168.165 283.516 168.239 283.619C168.313 283.722 167.995 284.172 167.826 284.814C167.656 285.456 167.685 286.024 167.56 286.054Z" fill="white"/>
<path d="M233.14 247.213L233.213 256.517L233.523 257.676C233.523 257.676 248.686 258.554 249.608 261.018L223.289 269.075L221.408 263.047L220.803 247.781L233.14 247.213Z" fill="#263238"/>
<path d="M225.037 259.026C224.803 259.182 224.635 259.419 224.567 259.692C224.499 259.965 224.535 260.254 224.668 260.502C224.814 260.737 225.044 260.908 225.312 260.978C225.58 261.048 225.865 261.012 226.107 260.878C226.35 260.714 226.524 260.465 226.595 260.181C226.666 259.896 226.629 259.595 226.491 259.336C226.313 259.106 226.052 258.955 225.764 258.914C225.477 258.872 225.184 258.944 224.949 259.114" fill="#E0E0E0"/>
<path d="M223.289 269.076L222.714 266.921L248.162 260.007C248.162 260.007 249.491 260.155 249.638 261.018L223.289 269.076Z" fill="#455A64"/>
<path d="M233.914 257.41C233.914 257.543 233.323 257.794 232.814 258.399C232.305 259.004 232.136 259.653 232.003 259.639C231.87 259.624 231.833 258.82 232.46 258.097C233.087 257.373 233.899 257.285 233.914 257.41Z" fill="white"/>
<path d="M237.02 257.705C237.087 257.823 236.6 258.214 236.327 258.886C236.054 259.557 236.105 260.177 235.98 260.214C235.854 260.251 235.545 259.542 235.899 258.738C236.253 257.934 236.983 257.587 237.02 257.705Z" fill="white"/>
<path d="M239.573 260.531C239.463 260.59 239.086 260.007 239.204 259.203C239.322 258.399 239.831 257.934 239.942 258.022C240.053 258.111 239.772 258.605 239.684 259.269C239.595 259.933 239.721 260.48 239.573 260.531Z" fill="white"/>
<path d="M173.609 107.353L172.34 79.6099C171.794 72.7184 175.358 66.6606 182.264 66.3286H182.898C186.004 66.3519 188.988 67.5438 191.255 69.6672C193.522 71.7905 194.906 74.6896 195.132 77.7874C195.567 83.764 195.973 90.3678 195.907 93.5775C195.774 100.218 189.133 101.185 189.133 101.185C189.133 101.185 189.229 105.221 189.296 107.161L191.007 111.655L185.51 110.511L173.609 107.353Z" fill="#B06B5A"/>
<path d="M189.134 101.17C186.081 101.138 183.101 100.234 180.545 98.5654C180.545 98.5654 182.589 103.568 189.207 102.993L189.134 101.17Z" fill="#844E42"/>
<path d="M192.955 83.543C192.955 83.7897 192.859 84.0266 192.687 84.2031C192.514 84.3796 192.28 84.4817 192.033 84.4875C191.913 84.4965 191.792 84.4813 191.678 84.4429C191.564 84.4045 191.459 84.3435 191.369 84.2637C191.279 84.1839 191.206 84.0869 191.154 83.9783C191.102 83.8697 191.072 83.7518 191.066 83.6315C191.064 83.3836 191.16 83.1448 191.333 82.9667C191.505 82.7886 191.741 82.6855 191.989 82.6797C192.109 82.6717 192.23 82.6879 192.344 82.7271C192.458 82.7664 192.563 82.828 192.653 82.9084C192.743 82.9888 192.816 83.0863 192.868 83.1953C192.92 83.3042 192.95 83.4225 192.955 83.543Z" fill="#263238"/>
<path d="M193.702 80.695C193.584 80.8131 192.868 80.2745 191.85 80.2745C190.832 80.2745 190.079 80.7688 189.968 80.6434C189.858 80.518 190.035 80.3704 190.367 80.1343C190.801 79.8365 191.316 79.6794 191.843 79.6842C192.374 79.6826 192.892 79.8535 193.318 80.1712C193.658 80.4147 193.761 80.636 193.702 80.695Z" fill="#263238"/>
<path d="M183.652 83.6905C183.652 83.9372 183.556 84.1741 183.383 84.3506C183.211 84.5271 182.976 84.6292 182.73 84.6349C182.609 84.644 182.488 84.6288 182.374 84.5905C182.259 84.5522 182.154 84.4914 182.063 84.4116C181.972 84.3319 181.898 84.2349 181.846 84.1263C181.793 84.0177 181.762 83.8996 181.756 83.779C181.756 83.5316 181.852 83.2939 182.024 83.1162C182.196 82.9385 182.431 82.8349 182.678 82.8272C182.799 82.8182 182.921 82.8336 183.036 82.8724C183.151 82.9112 183.257 82.9726 183.348 83.0531C183.438 83.1336 183.512 83.2315 183.564 83.3409C183.617 83.4504 183.647 83.5693 183.652 83.6905Z" fill="#263238"/>
<path d="M183.703 80.857C183.584 80.9825 182.876 80.4438 181.858 80.4365C180.84 80.4291 180.087 80.9382 179.976 80.8128C179.866 80.6873 180.043 80.5324 180.367 80.2963C180.804 80.0027 181.317 79.846 181.843 79.8462C182.374 79.8497 182.89 80.0201 183.319 80.3332C183.658 80.5693 183.762 80.798 183.703 80.857Z" fill="#263238"/>
<path d="M187.305 88.708C187.842 88.5478 188.397 88.4537 188.957 88.4277C189.223 88.4277 189.466 88.3539 189.511 88.1694C189.53 87.9129 189.474 87.6563 189.348 87.4316L188.611 85.4394C187.563 82.6134 186.81 80.2744 186.928 80.2744C187.761 81.8988 188.464 83.5863 189.031 85.3213L189.769 87.3209C189.931 87.6371 189.977 87.9996 189.902 88.3465C189.862 88.4379 189.802 88.5191 189.727 88.5843C189.652 88.6494 189.563 88.6968 189.466 88.7228C189.322 88.7622 189.173 88.7821 189.024 88.7818C188.45 88.8327 187.872 88.8079 187.305 88.708Z" fill="#263238"/>
<path d="M184.066 77.6621C183.918 77.9203 182.937 77.6621 181.734 77.6104C180.531 77.5588 179.52 77.7506 179.402 77.485C179.351 77.3522 179.557 77.1234 179.978 76.9168C180.54 76.6658 181.153 76.5472 181.768 76.5702C182.383 76.5932 182.985 76.7573 183.527 77.0496C183.94 77.2931 184.125 77.544 184.066 77.6621Z" fill="#263238"/>
<path d="M193.767 77.6919C193.561 77.928 192.727 77.6919 191.731 77.6919C190.735 77.6919 189.886 77.8616 189.694 77.6181C189.606 77.5 189.739 77.2713 190.108 77.0426C190.615 76.7714 191.185 76.6367 191.76 76.6515C192.336 76.6523 192.899 76.8105 193.391 77.109C193.745 77.3451 193.863 77.5812 193.767 77.6919Z" fill="#263238"/>
<path d="M172.842 84.5463C172.731 84.5021 168.296 83.1666 168.414 87.7043C168.532 92.2421 173.056 91.1944 173.056 91.0616C173.056 90.9287 172.842 84.5463 172.842 84.5463Z" fill="#B06B5A"/>
<path d="M171.624 89.3572C171.624 89.3572 171.543 89.4089 171.41 89.4753C171.317 89.5159 171.217 89.5369 171.115 89.5369C171.013 89.5369 170.913 89.5159 170.82 89.4753C170.524 89.2943 170.282 89.0389 170.116 88.7346C169.95 88.4303 169.867 88.0878 169.875 87.7413C169.856 87.3531 169.921 86.9653 170.067 86.605C170.105 86.4614 170.178 86.3295 170.28 86.2212C170.382 86.113 170.509 86.0319 170.65 85.9852C170.741 85.9566 170.838 85.9617 170.925 85.9997C171.012 86.0377 171.082 86.106 171.122 86.1918C171.181 86.3173 171.159 86.4058 171.181 86.4132C171.204 86.4206 171.277 86.332 171.233 86.1476C171.207 86.0349 171.142 85.9354 171.049 85.8672C170.986 85.8221 170.916 85.7898 170.841 85.7721C170.767 85.7544 170.689 85.7516 170.613 85.7639C170.426 85.8057 170.252 85.8958 170.11 86.0252C169.967 86.1546 169.861 86.3188 169.802 86.5017C169.62 86.899 169.536 87.3344 169.558 87.7708C169.545 88.1758 169.653 88.5756 169.867 88.9196C170.081 89.2637 170.392 89.5366 170.761 89.704C170.886 89.7394 171.018 89.7452 171.146 89.7208C171.274 89.6965 171.395 89.6428 171.499 89.5638C171.617 89.4605 171.639 89.3646 171.624 89.3572Z" fill="#844E42"/>
<path d="M184.123 89.4458C184.278 89.4458 184.322 90.4714 185.245 91.1798C186.167 91.8881 187.266 91.7258 187.281 91.8733C187.296 92.0209 187.038 92.0873 186.543 92.1168C185.934 92.147 185.333 91.9616 184.846 91.593C184.61 91.4172 184.412 91.1961 184.262 90.9428C184.113 90.6894 184.015 90.4087 183.976 90.1172C183.946 89.7114 184.057 89.4458 184.123 89.4458Z" fill="#263238"/>
<path d="M204.083 71.5011C203.998 71.235 203.813 71.0126 203.566 70.8813C203.028 70.6555 202.441 70.5741 201.862 70.6452C200.416 70.6488 198.987 70.3233 197.686 69.6933C198.13 69.4662 198.536 69.1698 198.888 68.8153C199.258 68.4506 199.522 67.9924 199.652 67.4896C199.782 66.9867 199.773 66.458 199.626 65.9598C199.602 65.8657 199.556 65.7786 199.492 65.7055C199.428 65.6325 199.347 65.5755 199.257 65.5392C198.962 65.4507 198.711 65.7458 198.519 65.9819C198.266 66.343 197.919 66.629 197.517 66.8095C197.114 66.99 196.67 67.0584 196.232 67.0076C195.625 66.9894 195.031 66.8275 194.498 66.5353C194.477 66.5175 194.457 66.4978 194.439 66.4763L193.701 65.7901C192.347 64.3668 190.728 63.2214 188.935 62.4181C186.281 61.5162 183.43 61.358 180.693 61.9606C178.398 62.6173 176.369 64.5357 176.096 66.9042C174.783 65.8417 172.835 65.8934 171.27 66.5648H171.234C169.492 67.2363 168.533 69.1104 168.053 70.9108C168.053 71.0141 168.009 71.11 167.98 71.2133C167.411 72.175 166.619 72.9851 165.67 73.5744C165.5 73.6777 165.309 73.8032 165.294 73.995C165.279 74.1868 165.449 74.3492 165.604 74.4598C166.036 74.7499 166.528 74.9391 167.043 75.0132C166.893 75.4435 166.708 75.8606 166.489 76.2602C166.297 76.5996 166.069 76.9981 166.253 77.3522C166.334 77.4801 166.453 77.5798 166.593 77.6379C166.733 77.696 166.887 77.7096 167.035 77.6769C167.328 77.6044 167.602 77.4712 167.839 77.2858L167.286 78.7099C167.925 78.8015 168.577 78.7434 169.19 78.5402C169.603 80.2077 169.928 83.2993 170.407 84.443C171.617 84.443 171.883 84.2954 172.517 84.4872C173.307 84.7307 173.041 86.1253 174.052 85.7121C174.569 85.4981 175.321 83.4985 175.484 82.9746C176.563 79.4156 176.862 75.6659 176.362 71.9807C177.076 71.1881 177.935 70.5395 178.892 70.0696L178.819 70.1434C180.656 69.4572 182.737 68.7784 184.515 69.6122C185.895 70.2541 186.728 71.656 187.776 72.7628C188.66 73.7744 189.749 74.5873 190.97 75.1481C192.19 75.7089 193.516 76.005 194.86 76.0167C195.162 78.0089 195.317 81.285 195.457 83.1517L196.97 79.3739C197.095 79.1526 197.191 78.9312 197.294 78.7099V78.6361C197.443 78.2712 197.611 77.9141 197.796 77.5662C198.017 77.743 198.295 77.8335 198.577 77.8208C198.86 77.8081 199.128 77.6931 199.332 77.4971C199.536 77.3012 199.662 77.0377 199.686 76.7558C199.711 76.474 199.631 76.1929 199.464 75.9651C199.302 75.7516 199.108 75.5649 198.888 75.4117C199.123 75.6264 199.41 75.7772 199.72 75.8495C200.03 75.9219 200.353 75.9134 200.659 75.8249C200.962 75.7196 201.222 75.5187 201.4 75.2524C201.579 74.9862 201.666 74.6691 201.648 74.3492C201.619 74.1369 201.537 73.9356 201.407 73.765C201.278 73.5943 201.107 73.46 200.91 73.3752C201.735 73.4243 202.555 73.2237 203.264 72.7997C203.81 72.5341 204.252 72.084 204.083 71.5011Z" fill="#263238"/>
<path d="M178.251 67.6201C178.021 67.8146 177.804 68.0241 177.602 68.2473C177.092 68.8891 176.757 69.6515 176.628 70.4608C176.525 71.0179 176.48 71.5842 176.495 72.1505C176.495 72.7629 176.569 73.4123 176.635 74.1058C176.713 74.8262 176.745 75.5507 176.731 76.2751C176.718 76.6638 176.676 77.0511 176.606 77.4335C176.558 77.8394 176.405 78.2258 176.163 78.5551C176.052 78.6882 175.907 78.7892 175.743 78.8476C175.58 78.906 175.404 78.9196 175.233 78.8871C174.905 78.8355 174.603 78.6743 174.377 78.4296C174.009 77.9433 173.778 77.3677 173.706 76.7621H173.839C173.665 77.2662 173.416 77.7413 173.101 78.1714C172.784 78.5704 172.328 78.8342 171.824 78.9092C171.59 78.9365 171.352 78.8982 171.138 78.7986C170.94 78.7017 170.775 78.5475 170.666 78.3559C170.562 78.1768 170.508 77.9727 170.511 77.7656C170.517 77.5759 170.588 77.3938 170.71 77.2491L170.784 77.3081C170.401 77.7706 169.923 78.1456 169.382 78.4075C169.241 78.4782 169.096 78.5399 168.947 78.592L168.74 78.6436C168.786 78.6144 168.836 78.592 168.888 78.5772L169.316 78.3706C169.836 78.0928 170.295 77.714 170.666 77.2565L170.74 77.3155C170.636 77.4596 170.581 77.6325 170.581 77.8098C170.581 77.9872 170.636 78.1601 170.74 78.3042C170.838 78.4777 170.988 78.6168 171.168 78.7026C171.363 78.7844 171.577 78.8149 171.788 78.7912C172.264 78.7092 172.691 78.4445 172.976 78.0533C173.285 77.6328 173.533 77.1708 173.713 76.6809L173.802 76.467L173.854 76.6957C173.923 77.2744 174.144 77.8244 174.495 78.2894C174.69 78.5035 174.949 78.6485 175.233 78.7026C175.379 78.7281 175.528 78.7149 175.667 78.6644C175.805 78.6139 175.928 78.5279 176.023 78.4149C176.246 78.1055 176.388 77.7454 176.436 77.3671C176.5 76.9938 176.54 76.6167 176.554 76.2382C176.57 75.5164 176.54 74.7944 176.466 74.0763C176.407 73.3901 176.347 72.7334 176.347 72.1136C176.341 71.5396 176.39 70.9663 176.495 70.4018C176.635 69.5739 176.992 68.7976 177.528 68.1514C177.738 67.935 177.982 67.7554 178.251 67.6201Z" fill="#455A64"/>
<path d="M198.932 73.626L198.881 73.6703L198.711 73.7957C198.627 73.8672 198.536 73.9291 198.438 73.9802C198.312 74.0661 198.179 74.1402 198.04 74.2015C197.157 74.6253 196.184 74.8231 195.206 74.7771C193.755 74.7151 192.353 74.2332 191.17 73.3899C189.74 72.3449 188.537 71.0193 187.636 69.494C187.134 68.7045 186.728 67.8855 186.278 67.1403C185.863 66.4071 185.347 65.7364 184.744 65.1481C184.205 64.6177 183.539 64.2342 182.81 64.0339C182.481 63.9483 182.139 63.9159 181.799 63.938C181.484 63.9608 181.174 64.0278 180.877 64.1372C180.365 64.3222 179.899 64.6168 179.512 65.0005C179.212 65.2863 178.963 65.6206 178.774 65.9892C178.628 66.3095 178.521 66.6465 178.457 66.9927V66.9189C178.457 66.8673 178.457 66.8009 178.457 66.7197C178.508 66.4658 178.587 66.2183 178.693 65.9819C178.88 65.6014 179.13 65.2547 179.431 64.9562C179.823 64.5597 180.296 64.2526 180.818 64.0561C181.121 63.9409 181.439 63.8689 181.763 63.8421C182.117 63.8134 182.473 63.8433 182.818 63.9306C183.573 64.1324 184.263 64.5235 184.825 65.0669C185.438 65.6599 185.962 66.3383 186.382 67.0813C186.839 67.8191 187.252 68.6529 187.747 69.435C188.637 70.9421 189.821 72.2545 191.229 73.294C192.389 74.1299 193.764 74.614 195.192 74.6885C196.152 74.745 197.111 74.5678 197.988 74.172C198.313 74.0076 198.628 73.8253 198.932 73.626Z" fill="#455A64"/>
<path d="M199.471 70.697C199.399 70.7623 199.32 70.8192 199.235 70.8667C199.012 71.0103 198.777 71.1361 198.534 71.243C198.176 71.4028 197.806 71.5336 197.427 71.6341C196.96 71.7469 196.483 71.8209 196.003 71.8554C195.523 71.8754 195.041 71.8532 194.564 71.789C194.176 71.7291 193.794 71.6378 193.421 71.516C193.167 71.4392 192.92 71.3405 192.683 71.2209C192.513 71.1397 192.425 71.088 192.432 71.0733C192.439 71.0585 192.816 71.2282 193.45 71.4127C193.82 71.5174 194.198 71.5939 194.579 71.6414C195.047 71.6993 195.518 71.7191 195.989 71.7005C196.46 71.6659 196.929 71.5969 197.39 71.4939C197.764 71.3989 198.131 71.2806 198.49 71.1397C199.102 70.8888 199.456 70.6675 199.471 70.697Z" fill="#455A64"/>
<path d="M159.885 195.032L154.417 229.268C154.417 229.268 147.319 271.754 147.135 280.313L165.463 280.66C165.463 280.66 170.79 240.27 174.317 234.33C177.844 228.39 185.348 181.042 185.348 181.042L159.885 195.032Z" fill="#263238"/>
<path d="M187.259 177.516C187.259 177.516 224.1 197.187 226.985 201.865C229.87 206.543 235.544 255.507 235.544 255.507L219.082 261.365L210.892 216.637L171.218 201.88C171.218 201.88 160.6 197.615 155.627 192.752C150.654 187.89 152.019 178.932 152.019 178.932L155.45 174.505L188.941 168.669L187.259 177.516Z" fill="#263238"/>
<path d="M162.984 199.201C163.132 199.292 163.291 199.364 163.457 199.415L164.836 199.946L169.942 201.85L186.765 208.159C193.34 210.623 199.309 212.822 203.633 214.357C205.802 215.131 207.558 215.736 208.798 216.142L210.199 216.607C210.361 216.671 210.529 216.715 210.701 216.74C210.55 216.658 210.392 216.589 210.229 216.533L208.849 216.002L203.743 214.098L186.906 207.768C180.331 205.296 174.362 203.104 170.038 201.562C167.869 200.824 166.113 200.183 164.873 199.777L163.471 199.319C163.312 199.268 163.149 199.229 162.984 199.201Z" fill="#455A64"/>
<path d="M187.452 177.656C185.958 177.382 184.48 177.027 183.025 176.593C180.597 175.973 178.598 175.634 178.598 175.531C180.127 175.551 181.647 175.782 183.113 176.217C184.609 176.532 186.064 177.014 187.452 177.656Z" fill="#455A64"/>
<path d="M190.719 109.7L189.244 106.062L188.624 106.984L188.048 106.032L172.281 98.9639L170.952 102.255L165.787 104.24C164.173 104.861 162.745 105.887 161.642 107.219C160.538 108.551 159.796 110.145 159.486 111.847L157.56 135.082L157.612 138.845L157.066 151.691C157.56 152.532 151.045 162.249 150.853 165.71C150.661 169.17 154.159 172.033 154.159 172.033L188.882 174.667C188.882 174.667 190.638 174.926 192.092 171.716C193.361 168.905 193.258 149.64 193.258 149.64C193.258 149.64 193.339 139.31 193.678 132.256C193.707 128.009 193.347 123.768 192.601 119.587L190.719 109.7Z" fill="#EBEBEB"/>
<path d="M170.274 101.937L171.683 99.6426C171.683 99.6426 178.752 104.594 180.537 109.648C182.323 114.702 182.315 137.022 181.393 143.227C180.39 149.927 179.807 157.911 169.182 169.133C156.963 182.046 161.508 195.608 159.066 196.581C159.066 196.581 140.295 190.568 140.619 188.465C142.095 178.098 154.963 154.886 155.074 154.583L156.955 133.776L156.741 109.146C159.693 107.154 161.235 105.516 163.987 104.608L170.274 101.937Z" fill="#1A237E"/>
<path opacity="0.3" d="M171.712 123.232L155.797 146.15L156.505 138.343L171.712 123.232Z" fill="black"/>
<path d="M178.9 153.167C178.925 152.978 178.962 152.79 179.011 152.606C179.092 152.2 179.21 151.676 179.35 151.012C179.623 149.625 179.992 147.611 180.25 145.109C180.376 143.855 180.479 142.475 180.494 140.992C180.495 139.412 180.408 137.833 180.235 136.262C179.933 132.927 179.608 129.268 179.261 125.423C179.011 122.472 178.76 119.69 178.524 117.064V117.012V116.96L180.184 113.751L180.302 113.994L178.487 113.529H178.428V113.485C176.037 109.995 174.001 107.103 172.599 105.088C171.861 104.085 171.322 103.303 170.916 102.779C170.717 102.513 170.555 102.321 170.451 102.188C170.348 102.056 170.274 102.004 170.282 101.997C170.289 101.989 171.293 102.993 172.761 104.948C174.229 106.903 176.288 109.796 178.701 113.264L178.605 113.197L180.42 113.655L180.634 113.706L180.531 113.898L178.885 117.123V117.019C179.121 119.646 179.372 122.465 179.623 125.379C179.955 129.231 180.272 132.89 180.567 136.233C180.73 137.814 180.803 139.403 180.789 140.992C180.789 142.468 180.641 143.87 180.501 145.131C180.27 147.117 179.925 149.088 179.468 151.034C179.306 151.728 179.165 152.259 179.062 152.613C179.028 152.803 178.974 152.989 178.9 153.167Z" fill="#263238"/>
<path d="M155.834 164.234C155.834 164.234 155.738 164.345 155.554 164.507L154.72 165.201L151.68 167.658L151.628 167.407L161.56 170.359L161.383 170.396L161.442 170.344L165.64 166.655L165.714 166.965L158.631 165.054L156.579 164.471C156.326 164.41 156.079 164.326 155.842 164.22C156.091 164.244 156.338 164.288 156.579 164.353L158.631 164.832C160.387 165.253 162.888 165.873 165.817 166.61L166.149 166.699L165.891 166.92L161.708 170.61L161.648 170.661L161.567 170.735H161.471L151.562 167.71L151.289 167.629L151.518 167.459L154.683 165.083C155.051 164.78 155.436 164.496 155.834 164.234Z" fill="#263238"/>
<path d="M191.282 112.238C191.237 112.238 191.009 111.78 190.47 111.065L189.481 109.796C189.044 109.25 188.675 108.652 188.382 108.017L188.692 108.054L187.002 110.268C186.559 110.851 186.132 111.404 185.733 111.935L185.637 112.053L185.504 111.987C183.984 111.249 182.664 110.666 181.741 110.209C181.223 109.999 180.728 109.734 180.266 109.419C180.799 109.563 181.317 109.756 181.815 109.995C182.767 110.393 184.102 110.969 185.637 111.655L185.416 111.707L186.67 110.039L188.382 107.826L188.574 107.582L188.692 107.862C189.251 108.936 189.9 109.961 190.632 110.924C190.933 111.316 191.153 111.762 191.282 112.238Z" fill="#263238"/>
<path d="M188.602 108.077C188.629 108.131 188.648 108.188 188.661 108.246L188.794 108.748C188.905 109.191 189.06 109.847 189.244 110.689C189.606 112.386 190.078 114.85 190.587 117.912C190.838 119.44 191.096 121.114 191.325 122.922C191.45 123.822 191.59 124.759 191.672 125.733C191.753 126.707 191.782 127.711 191.797 128.736C191.834 130.788 191.797 132.942 191.731 135.171C191.664 137.399 191.576 139.708 191.406 142.069C191.074 146.792 190.498 151.263 189.975 155.351C189.451 159.438 188.919 163.069 188.277 166.109C187.636 169.149 186.935 171.561 186.44 173.222C186.189 174.048 185.983 174.697 185.843 175.125L185.673 175.612C185.658 175.672 185.636 175.729 185.606 175.782C185.595 175.723 185.595 175.663 185.606 175.605L185.739 175.103C185.865 174.631 186.042 173.989 186.263 173.177C186.713 171.51 187.377 169.09 187.975 166.057C188.573 163.024 189.096 159.372 189.598 155.307C190.1 151.241 190.668 146.777 190.993 142.025C191.162 139.671 191.258 137.369 191.325 135.141C191.391 132.913 191.443 130.766 191.413 128.722C191.413 127.704 191.369 126.707 191.303 125.77C191.236 124.833 191.096 123.874 190.978 122.974C190.742 121.166 190.498 119.491 190.24 117.956C189.775 114.902 189.34 112.43 189.023 110.726C188.86 109.907 188.735 109.25 188.646 108.77L188.55 108.261C188.557 108.197 188.574 108.135 188.602 108.077Z" fill="#263238"/>
<path d="M138.164 185.875C138.34 186.849 138.399 187.84 138.341 188.827C138.186 189.86 136.445 193.512 136.445 193.512C136.445 193.512 135.463 193.579 135.707 191.136C135.807 189.954 136.015 188.784 136.327 187.639L138.164 185.875Z" fill="#844E42"/>
<path d="M122.566 204.669C122.566 204.669 122.175 189.646 125.414 187.528C128.653 185.411 133.323 183.684 134.932 185.721C136.928 188.311 138.429 191.248 139.359 194.383C140.075 197.316 140.556 200.302 140.798 203.311L136.784 203.407C136.784 203.407 134.984 188.65 133.486 186.606C131.988 184.562 126.144 187.16 125.834 189.882C125.524 192.605 125.657 204.588 125.657 204.588L122.566 204.669Z" fill="#455A64"/>
<path d="M111.623 227.402C110.981 221.27 109.749 207.723 109.21 201.769C109.138 200.988 109.372 200.21 109.862 199.598C110.352 198.986 111.059 198.587 111.837 198.485L148.183 193.792C148.964 193.692 149.753 193.898 150.384 194.367C151.016 194.837 151.441 195.532 151.57 196.309L155.672 221.292C155.737 221.691 155.722 222.1 155.627 222.493C155.532 222.886 155.36 223.256 155.12 223.582C154.88 223.908 154.578 224.182 154.23 224.39C153.883 224.597 153.498 224.733 153.097 224.79L115.061 230.087C114.658 230.145 114.247 230.121 113.853 230.016C113.459 229.911 113.091 229.728 112.77 229.477C112.449 229.226 112.182 228.913 111.984 228.556C111.787 228.2 111.664 227.807 111.623 227.402Z" fill="#455A64"/>
<path d="M135.116 192.737L138.171 185.993L138.031 177.818L128.963 176.733L125.62 184.259C125.62 184.259 125.332 188.318 125.62 189.24C125.908 190.162 127.302 190.155 127.302 190.155C127.509 191.417 129.391 191.786 129.391 191.786C129.811 193.158 131.538 192.767 131.538 192.767C131.538 192.767 132.239 194.316 132.799 194.479C133.052 194.521 133.311 194.48 133.537 194.361C134.245 194.032 134.807 193.454 135.116 192.737Z" fill="#B06B5A"/>
<path d="M127.419 188.119C127.508 188.119 127.544 188.569 127.508 189.115C127.471 189.661 127.36 190.096 127.264 190.089C127.168 190.081 127.139 189.631 127.176 189.093C127.212 188.554 127.33 188.111 127.419 188.119Z" fill="#844E42"/>
<path d="M129.633 188.938C129.674 189.432 129.64 189.93 129.53 190.413C129.522 190.901 129.445 191.386 129.301 191.852C129.058 190.882 129.176 189.857 129.633 188.967V188.938Z" fill="#844E42"/>
<path d="M131.995 190.206C132.083 190.243 131.928 190.789 131.781 191.468C131.633 192.147 131.537 192.7 131.441 192.7C131.301 192.276 131.301 191.818 131.441 191.394C131.611 190.686 131.914 190.17 131.995 190.206Z" fill="#844E42"/>
<path d="M137.167 188.089C136.938 189.004 136.607 189.89 136.178 190.731C135.847 191.61 135.416 192.45 134.895 193.232C135.44 191.425 136.203 189.69 137.167 188.067V188.089Z" fill="#B06B5A"/>
<path d="M127.885 186.694C127.885 186.739 127.803 186.813 127.612 186.835C127.364 186.865 127.114 186.802 126.911 186.658C126.705 186.516 126.561 186.303 126.505 186.06C126.461 185.875 126.505 185.765 126.542 185.757C126.579 185.75 126.741 186.141 127.103 186.392C127.464 186.643 127.863 186.606 127.885 186.694Z" fill="#844E42"/>
<path d="M130.224 188.178C130.224 188.222 130.121 188.281 129.921 188.296C129.658 188.295 129.401 188.216 129.184 188.067C128.962 187.92 128.794 187.705 128.704 187.455C128.638 187.263 128.66 187.137 128.704 187.13C128.748 187.123 128.948 187.514 129.368 187.794C129.789 188.074 130.217 188.089 130.224 188.178Z" fill="#844E42"/>
<path d="M135.256 189.727C135.301 189.727 135.374 189.993 135.05 190.199C134.86 190.292 134.654 190.344 134.443 190.355C134.233 190.365 134.022 190.332 133.825 190.258C133.426 190.126 133.081 189.867 132.843 189.521C132.666 189.262 132.644 189.063 132.681 189.048C133.033 189.423 133.457 189.722 133.928 189.926C134.256 190.042 134.61 190.057 134.946 189.971C135.175 189.912 135.212 189.727 135.256 189.727Z" fill="#844E42"/>
<path d="M152.936 220.997C152.936 220.997 152.936 220.931 152.877 220.791C152.818 220.65 152.803 220.422 152.744 220.156L152.257 217.729C151.844 215.589 151.261 212.564 150.538 208.778C150.176 206.89 149.8 204.824 149.372 202.603C149.158 201.488 148.944 200.337 148.722 199.157C148.663 198.862 148.612 198.559 148.553 198.264L148.464 197.821C148.441 197.694 148.382 197.576 148.294 197.482C148.213 197.383 148.106 197.307 147.986 197.262C147.865 197.216 147.735 197.203 147.608 197.224L146.671 197.349L130.261 199.482L113.852 201.592C113.559 201.605 113.271 201.662 112.996 201.761C112.884 201.826 112.79 201.917 112.721 202.026C112.653 202.135 112.613 202.26 112.605 202.389C112.605 202.957 112.686 203.599 112.723 204.189C112.811 205.392 112.892 206.558 112.974 207.686C113.131 209.944 113.276 212.037 113.409 213.966C113.667 217.78 113.874 220.879 114.021 223.056C114.088 224.104 114.132 224.93 114.169 225.528V226.17C114.177 226.243 114.177 226.317 114.169 226.391C114.161 226.317 114.161 226.243 114.169 226.17L114.102 225.535C114.043 224.937 113.977 224.111 113.881 223.063C113.704 220.894 113.453 217.795 113.143 213.98C112.988 212.062 112.826 209.966 112.656 207.709C112.568 206.58 112.479 205.414 112.383 204.219C112.346 203.606 112.28 203.031 112.258 202.359C112.271 202.175 112.329 201.996 112.427 201.84C112.524 201.683 112.659 201.552 112.819 201.459C112.975 201.372 113.149 201.319 113.328 201.304L113.8 201.245L130.217 199.105L146.605 196.995L147.542 196.877C147.819 196.842 148.098 196.911 148.327 197.071C148.556 197.23 148.718 197.469 148.781 197.74L148.87 198.198C148.922 198.5 148.973 198.795 149.032 199.09C149.246 200.278 149.46 201.429 149.659 202.544C150.065 204.757 150.442 206.838 150.781 208.734C151.452 212.497 151.998 215.559 152.382 217.699C152.559 218.739 152.699 219.558 152.795 220.141C152.84 220.407 152.869 220.614 152.899 220.783C152.919 220.853 152.932 220.925 152.936 220.997Z" fill="#263238"/>
<path d="M135.497 202.687L126.943 203.74C126.733 203.766 126.583 203.958 126.609 204.168L126.806 205.764C126.832 205.975 127.023 206.124 127.234 206.098L135.787 205.045C135.997 205.019 136.147 204.828 136.121 204.617L135.925 203.021C135.899 202.811 135.707 202.661 135.497 202.687Z" fill="#263238"/>
<path d="M168.245 126.604L146.264 148.452L140.361 179.227L127.08 177.641L131.95 147.389C132.716 142.603 134.622 138.07 137.506 134.174L153.982 111.847C155.07 110.263 156.508 108.95 158.184 108.01C159.86 107.069 161.729 106.527 163.648 106.423C165.92 106.396 168.118 107.235 169.794 108.77C173.115 112.348 172.834 117.078 172.746 118.517" fill="#1A237E"/>
<path d="M172.725 118.487C172.803 117.891 172.835 117.289 172.821 116.687C172.812 114.953 172.461 113.238 171.788 111.64C171.293 110.482 170.59 109.424 169.714 108.519C168.598 107.531 167.246 106.847 165.789 106.534C164.098 106.173 162.342 106.264 160.698 106.8C158.846 107.363 157.15 108.345 155.739 109.67C154.983 110.378 154.306 111.164 153.718 112.017L151.799 114.599L147.734 120.081L138.769 132.167C137.987 133.237 137.16 134.292 136.408 135.436C134.084 138.99 132.524 142.987 131.826 147.175C130.911 152.871 129.959 158.767 128.985 164.802C128.291 169.148 127.605 173.421 126.934 177.582V177.781H127.133L140.414 179.36H140.591V179.19C142.805 167.643 144.797 157.195 146.494 148.407L146.45 148.489L162.387 132.507L166.748 128.08L167.877 126.936C168.128 126.67 168.246 126.53 168.246 126.53C168.246 126.53 168.106 126.648 167.847 126.899L166.689 128.08L162.262 132.411L146.162 148.326V148.378C144.458 157.158 142.473 167.562 140.193 179.139L140.399 178.991L127.118 177.398L127.288 177.619C127.959 173.45 128.645 169.178 129.346 164.839C130.313 158.796 131.257 152.901 132.172 147.205C132.634 144.425 133.481 141.723 134.688 139.177C135.272 137.944 135.94 136.753 136.688 135.613C137.426 134.484 138.245 133.399 139.027 132.352C142.178 128.087 145.166 124.036 147.962 120.236L152.013 114.747L153.924 112.157C154.501 111.32 155.161 110.544 155.894 109.84C157.272 108.538 158.931 107.571 160.742 107.014C162.344 106.474 164.061 106.372 165.715 106.719C167.153 107.013 168.489 107.68 169.589 108.652C170.456 109.532 171.156 110.562 171.655 111.692C172.339 113.27 172.71 114.967 172.747 116.687C172.747 117.27 172.747 117.72 172.747 118.023C172.747 118.325 172.725 118.487 172.725 118.487Z" fill="#263238"/>
</svg>
