<svg width="337" height="345" viewBox="0 0 337 345" fill="none" xmlns="http://www.w3.org/2000/svg">
<path d="M103.87 64.2338L96.71 51.6114C101.145 44.4189 102.73 35.8275 101.152 27.5261C99.5738 19.2246 94.9478 11.8137 88.1831 6.74996C81.4183 1.68625 73.0041 -0.663922 64.5944 0.161427C56.1848 0.986776 48.388 4.92795 42.7368 11.2102C37.0855 17.4925 33.9886 25.6614 34.0547 34.1112C34.1209 42.561 37.3453 50.6804 43.0942 56.8734C48.8431 63.0664 56.7006 66.8851 65.1222 67.5787C73.5437 68.2723 81.9201 65.7907 88.6048 60.6217L103.87 64.2338Z" fill="#FAFAFA"/>
<path d="M103.871 64.2339L88.5731 60.7419H88.421L88.5171 60.6138L88.6612 60.7659C86.5189 62.4276 84.1882 63.8308 81.7173 64.9467C78.7729 66.2662 75.6553 67.1588 72.4587 67.5977C70.6894 67.8445 68.9016 67.9329 67.1166 67.862C66.1956 67.814 65.2585 67.79 64.3134 67.7099L61.4622 67.2774C54.8678 65.9852 48.8031 62.771 44.0316 58.0394C39.2601 53.3078 35.995 47.2703 34.6475 40.687C33.6732 35.7102 33.8099 30.5797 35.048 25.6618C36.3137 20.5258 38.7846 15.7651 42.2562 11.774L43.6338 10.2603C44.0823 9.74767 44.6269 9.32318 45.1155 8.85865C45.6041 8.39412 46.0926 7.91357 46.6533 7.52113L48.2551 6.31174C48.7865 5.90215 49.3458 5.53016 49.929 5.19847L51.643 4.15728L53.437 3.29229C54.023 2.9878 54.6276 2.7203 55.2471 2.49138C60.0546 0.590883 65.2282 -0.202958 70.3844 0.168728C75.2608 0.500818 80.0047 1.90074 84.2802 4.26941C91.9486 8.55123 97.682 15.6119 100.299 23.9959C101.339 27.5639 101.833 31.2687 101.764 34.9845C101.588 40.9141 99.8476 46.6918 96.7184 51.7316V51.6275L103.791 64.298L96.6223 51.6675V51.6115V51.5634C98.0049 49.2971 99.1202 46.8782 99.9461 44.3552C100.925 41.3104 101.464 38.1416 101.548 34.9444C101.604 31.2619 101.102 27.592 100.058 24.06C97.4474 15.7672 91.7541 8.79237 84.1521 4.57376C79.9211 2.25137 75.2325 0.884448 70.4164 0.569185C65.3271 0.189226 60.2173 0.955553 55.4633 2.81175C54.847 3.04205 54.2452 3.30951 53.6613 3.61266L51.8912 4.47765L50.2013 5.50282C49.6253 5.83204 49.0715 6.19857 48.5434 6.60007L46.9416 7.80144C46.397 8.18588 45.9404 8.68245 45.4279 9.11494C44.9153 9.54744 44.4187 10.02 43.9702 10.4925L42.6086 11.9902C39.1687 15.9304 36.7169 20.6335 35.4565 25.7099C34.2318 30.5668 34.0923 35.6339 35.048 40.5508C35.9774 45.2017 37.8888 49.6006 40.6544 53.4536C45.6432 60.4104 53.085 65.216 61.4782 66.9009L64.3054 67.3334C65.2425 67.4135 66.1715 67.4456 67.0846 67.4936C68.8531 67.5697 70.625 67.4866 72.3786 67.2453C75.55 66.8248 78.6457 65.9566 81.5731 64.6664C84.0338 63.5633 86.3586 62.1792 88.501 60.5417L89.1258 60.0611L88.6452 60.6858L88.5891 60.5257L103.871 64.2339Z" fill="#263238"/>
<path d="M45.5957 37.4193L46.4527 35.5131C47.5137 36.2503 48.7728 36.6495 50.0648 36.6584C51.5625 36.6584 52.1792 36.1538 52.1792 35.481C52.1792 33.4307 45.7719 34.8403 45.7719 30.7717C45.7719 28.9135 47.2696 27.3678 50.3852 27.3678C51.7151 27.3403 53.0275 27.6753 54.1815 28.3369L53.3806 30.2591C52.4929 29.7328 51.4883 29.4356 50.4573 29.3941C48.9515 29.3941 48.3749 29.9627 48.3749 30.6515C48.3749 32.6698 54.7822 31.2762 54.7822 35.2968C54.7822 37.1229 53.2685 38.6927 50.1369 38.6927C48.528 38.7475 46.9416 38.3026 45.5957 37.4193Z" fill="#263238"/>
<path d="M55.6396 34.2958C55.6396 31.7569 57.5939 29.9629 60.2689 29.9629C62.944 29.9629 64.8742 31.7569 64.8742 34.2958C64.8742 36.8347 62.936 38.6288 60.2609 38.6288C57.5859 38.6288 55.6396 36.8267 55.6396 34.2958ZM62.4074 34.2958C62.3731 33.8783 62.2178 33.4797 61.9605 33.1491C61.7033 32.8184 61.3552 32.5699 60.9588 32.434C60.5625 32.2982 60.1351 32.2808 59.7291 32.3841C59.323 32.4873 58.9559 32.7068 58.6726 33.0155C58.3894 33.3242 58.2023 33.7088 58.1343 34.1222C58.0662 34.5357 58.1202 34.9599 58.2896 35.3431C58.459 35.7263 58.7365 36.0518 59.088 36.2798C59.4396 36.5077 59.85 36.6282 60.2689 36.6265C60.5674 36.6302 60.8633 36.5709 61.1373 36.4524C61.4113 36.334 61.6573 36.1591 61.8591 35.9391C62.0609 35.7192 62.2141 35.4591 62.3085 35.176C62.403 34.8928 62.4367 34.5929 62.4074 34.2958Z" fill="#263238"/>
<path d="M71.73 29.9627V32.2133C71.5297 32.2133 71.3696 32.2133 71.1853 32.2133C70.8747 32.1851 70.5617 32.2274 70.2696 32.3369C69.9775 32.4465 69.7139 32.6205 69.4984 32.846C69.2828 33.0715 69.121 33.3428 69.0248 33.6395C68.9286 33.9362 68.9006 34.2509 68.9428 34.5599V38.5645H66.54V30.0828H68.8787V31.1961C69.2207 30.7775 69.6581 30.447 70.1542 30.2324C70.6504 30.0178 71.1907 29.9253 71.73 29.9627Z" fill="#263238"/>
<path d="M78.4097 29.9629V32.2135C78.2014 32.2135 78.0492 32.2135 77.857 32.2135C76.5115 32.2135 75.6225 32.9503 75.6225 34.5602V38.5647H73.2197V30.083H75.5504V31.1963C75.8945 30.7781 76.3334 30.448 76.8307 30.2335C77.328 30.019 77.8693 29.9262 78.4097 29.9629Z" fill="#263238"/>
<path d="M88.509 30.0828L84.7127 39.021C83.9118 41.0473 82.7344 41.664 81.2207 41.664C80.3699 41.6736 79.5415 41.3909 78.874 40.8631L79.763 39.1251C80.146 39.4585 80.633 39.6483 81.1406 39.6618C81.8134 39.6618 82.1898 39.3574 82.5182 38.6126V38.5325L78.874 30.0508H81.3889L83.7916 35.7613L86.1944 30.0508L88.509 30.0828Z" fill="#263238"/>
<path d="M89.1494 37.2028C89.1771 36.8234 89.3474 36.4686 89.626 36.2097C89.9045 35.9507 90.2708 35.8068 90.6511 35.8068C91.0315 35.8068 91.3977 35.9507 91.6763 36.2097C91.9549 36.4686 92.1251 36.8234 92.1528 37.2028C92.1251 37.5821 91.9549 37.9369 91.6763 38.1959C91.3977 38.4548 91.0315 38.5987 90.6511 38.5987C90.2708 38.5987 89.9045 38.4548 89.626 38.1959C89.3474 37.9369 89.1771 37.5821 89.1494 37.2028ZM89.1975 27.5918H92.1048L91.6162 34.744H89.702L89.1975 27.5918Z" fill="#263238"/>
<path d="M137.438 84.9053L149.876 80.3001L180.679 78.0415L188.784 80.5163L177.852 127.61L150.981 133.417L138.519 116.878L137.438 84.9053Z" fill="#A46850"/>
<path d="M207.229 86.8274L187.15 79.6992C187.15 79.6992 168.321 106.634 137.437 84.8651C137.437 84.8651 123.894 89.7347 121.876 90.856C119.857 91.9772 131.294 126.2 131.294 126.2L129.949 168.753C147.569 177.843 175.761 174.463 200.301 170.355L199.596 123.101L207.229 86.8274Z" fill="#1A237E"/>
<path d="M199.428 48.2237C200.469 46.7274 200.926 44.9015 200.713 43.0911C200.499 41.2808 199.63 39.6113 198.269 38.3984C196.908 37.1855 195.15 36.5131 193.327 36.5083C191.504 36.5035 189.743 37.1667 188.375 38.3724L184.371 45.4766C182.124 48.164 180.648 51.411 180.102 54.8713C179.585 58.3654 180.418 61.9253 182.433 64.8267C183.443 66.2296 184.744 67.398 186.248 68.2519C187.751 69.1058 189.421 69.6251 191.144 69.7744C192.866 69.9237 194.601 69.6994 196.229 69.1169C197.857 68.5344 199.34 67.6074 200.576 66.3992C201.813 65.191 202.775 63.73 203.395 62.1162C204.015 60.5023 204.28 58.7736 204.171 57.0481C204.062 55.3225 203.582 53.6408 202.763 52.1179C201.945 50.595 200.807 49.2666 199.428 48.2237Z" fill="#263238"/>
<path d="M189.016 48.7762C188.896 46.3735 188.64 43.9707 189.321 41.6401C189.659 40.8015 189.88 39.9201 189.978 39.0211C189.972 38.3665 189.765 37.7295 189.387 37.1957C189.008 36.6619 188.474 36.2569 187.859 36.0354C187.243 35.8138 186.574 35.7862 185.942 35.9562C185.309 36.1263 184.745 36.486 184.323 36.9868L184.211 37.2511C182.825 38.3723 182.161 40.1424 181.616 41.8403C180.777 44.4867 180.092 47.1797 179.566 49.9055C179.195 51.4248 179.105 52.9992 179.301 54.5508C179.406 55.3241 179.692 56.0616 180.136 56.7033C180.58 57.345 181.169 57.8726 181.856 58.243C184.035 59.2522 186.726 57.8586 187.919 55.7842C189.113 53.7099 189.161 51.1629 189.016 48.7762Z" fill="#1A237E"/>
<path d="M186.053 40.5427C185.596 37.8196 184.411 35.2567 183.994 32.5335C183.45 28.9535 184.259 25.3253 184.459 21.7052C184.659 18.085 184.091 14.1045 181.439 11.6377C178.612 9.00267 174.359 8.88253 170.555 8.19374C166.23 7.39283 162.129 5.7029 157.877 4.57361C153.624 3.44432 149.018 2.9077 144.902 4.45347C141.177 5.84706 138.262 8.7704 135.627 11.7418C131.35 16.5553 127.346 22.2578 127.346 28.6972C127.346 32.037 128.523 35.2727 128.948 38.5885C129.356 41.7921 129.1 44.9958 129.845 48.1994C130.589 51.4031 132.704 54.4466 135.859 55.0232L170.475 58.4832C172.746 58.5461 175.004 58.1046 177.084 57.1904C179.164 56.2763 181.016 54.9122 182.506 53.1964C183.996 51.4806 185.087 49.4557 185.7 47.2677C186.313 45.0797 186.434 42.7829 186.053 40.5427Z" fill="#263238"/>
<path d="M176.634 23.5631L176.546 19.3262L150.917 15.5219C143.052 15.0093 134.898 23.2107 134.722 31.0917C134.53 39.8457 134.634 50.5459 135.932 57.0253C138.543 70.0482 148.658 71.3056 148.658 71.3056V78.706C148.662 82.6486 150.231 86.4283 153.02 89.2153C155.808 92.0023 159.589 93.5689 163.531 93.571C165.525 93.571 167.498 93.1702 169.334 92.3924C171.169 91.6146 172.83 90.4757 174.216 89.0434C175.603 87.6112 176.688 85.9147 177.406 84.0549C178.124 82.1952 178.461 80.21 178.396 78.2175L176.634 23.5631Z" fill="#A46850"/>
<path d="M140.16 39.8217C140.183 40.2545 140.371 40.662 140.685 40.9601C141 41.2582 141.417 41.4241 141.85 41.4235C142.066 41.4333 142.282 41.3991 142.485 41.3229C142.688 41.2468 142.873 41.1304 143.03 40.9806C143.186 40.8309 143.311 40.651 143.396 40.4518C143.481 40.2526 143.524 40.0383 143.524 39.8217C143.501 39.389 143.313 38.9814 142.999 38.6833C142.684 38.3852 142.267 38.2193 141.834 38.2199C141.618 38.2101 141.402 38.2444 141.199 38.3205C140.996 38.3966 140.811 38.5131 140.655 38.6628C140.498 38.8125 140.374 38.9924 140.289 39.1916C140.204 39.3908 140.16 39.6052 140.16 39.8217Z" fill="#263238"/>
<path d="M137.757 36.5463C137.974 36.7545 139.215 35.7453 141.017 35.6973C142.819 35.6492 144.221 36.4982 144.381 36.2499C144.469 36.1458 144.245 35.7614 143.644 35.3609C142.839 34.8527 141.896 34.6039 140.945 34.6481C140.005 34.6814 139.101 35.0155 138.366 35.6012C137.805 36.0497 137.637 36.4501 137.757 36.5463Z" fill="#263238"/>
<path d="M157.275 39.2451C157.298 39.6778 157.486 40.0853 157.8 40.3835C158.115 40.6816 158.532 40.8475 158.965 40.8469C159.182 40.8566 159.398 40.8224 159.6 40.7463C159.803 40.6702 159.988 40.5537 160.145 40.404C160.301 40.2543 160.426 40.0744 160.511 39.8752C160.596 39.676 160.639 39.4616 160.639 39.2451C160.617 38.8123 160.429 38.4048 160.114 38.1067C159.8 37.8085 159.383 37.6426 158.949 37.6432C158.733 37.6335 158.517 37.6677 158.314 37.7438C158.111 37.82 157.926 37.9364 157.77 38.0861C157.613 38.2359 157.489 38.4158 157.404 38.6149C157.319 38.8141 157.275 39.0285 157.275 39.2451Z" fill="#263238"/>
<path d="M155.538 36.1615C155.754 36.3697 156.987 35.3606 158.797 35.3125C160.608 35.2645 162.001 36.1134 162.153 35.8652C162.249 35.761 162.025 35.3766 161.424 34.9761C160.619 34.4679 159.677 34.2191 158.725 34.2633C157.797 34.3039 156.905 34.6376 156.178 35.2164C155.602 35.6489 155.434 36.0654 155.538 36.1615Z" fill="#263238"/>
<path d="M149.514 49.8414C148.55 49.583 147.557 49.4457 146.559 49.4329C146.095 49.4329 145.654 49.3288 145.558 49.0164C145.505 48.542 145.594 48.0624 145.814 47.6389C146.207 46.5016 146.615 45.3082 147.04 44.0668C148.73 38.981 149.939 34.8483 149.771 34.7361C149.603 34.624 148.025 38.7407 146.335 43.8265C145.926 45.0759 145.534 46.2693 145.166 47.4146C144.881 47.9879 144.81 48.6438 144.965 49.2647C145.04 49.4261 145.152 49.5679 145.291 49.679C145.43 49.7902 145.592 49.8677 145.766 49.9055C146.029 49.9657 146.298 49.9926 146.567 49.9855C147.552 50.0633 148.542 50.0148 149.514 49.8414Z" fill="#263238"/>
<path d="M148.689 71.3376C155.009 71.1807 161.165 69.3002 166.494 65.8994C166.494 65.8994 162.305 75.2941 148.689 74.6374V71.3376Z" fill="#7B3B21"/>
<path d="M150.46 54.1742C150.782 53.7236 151.216 53.3643 151.718 53.1312C152.221 52.8982 152.775 52.7995 153.327 52.8447C153.729 52.8615 154.123 52.9604 154.486 53.1353C154.848 53.3103 155.171 53.5575 155.434 53.8618C155.686 54.154 155.842 54.5162 155.882 54.8999C155.922 55.2836 155.844 55.6704 155.658 56.0083C155.38 56.3444 155.009 56.5902 154.591 56.7143C154.173 56.8384 153.727 56.8352 153.311 56.7051C152.446 56.4392 151.643 56.0035 150.949 55.4236C150.737 55.2842 150.553 55.1079 150.404 54.903C150.34 54.8026 150.306 54.6858 150.306 54.5666C150.306 54.4474 150.34 54.3307 150.404 54.2302" fill="#281209"/>
<path d="M163.883 30.7876C163.779 30.275 161.953 30.2429 159.879 29.6823C157.804 29.1217 156.194 28.2967 155.874 28.6972C155.722 28.8814 155.946 29.386 156.563 29.9546C157.393 30.6681 158.375 31.1831 159.434 31.4607C160.492 31.7382 161.601 31.771 162.674 31.5564C163.483 31.3562 163.923 31.0278 163.883 30.7876Z" fill="#263238"/>
<path d="M142.955 29.4819C142.387 29.3137 141.089 30.459 139.311 31.4041C137.533 32.3492 135.867 32.8618 135.715 33.4224C135.659 33.6867 136.083 33.927 136.924 33.935C138.081 33.8914 139.21 33.57 140.216 32.9979C141.236 32.4734 142.11 31.706 142.763 30.7634C143.203 30.0425 143.219 29.578 142.955 29.4819Z" fill="#263238"/>
<path d="M171.852 11.061L152.086 12.6148L135.707 18.2613C137.813 22.8505 138.214 26.6228 143.244 27.0713C145.765 27.2911 148.301 26.861 150.609 25.822C152.916 24.783 154.92 23.1699 156.427 21.1365C157.276 24.8528 161.464 26.7429 165.237 27.2716C167.907 27.7553 170.658 27.5062 173.198 26.5507C175.673 25.4935 177.771 23.267 178.107 20.5919C178.444 17.9169 174.511 11.5015 171.852 11.061Z" fill="#263238"/>
<path d="M187.51 24.1958C186.409 22.1521 184.605 20.576 182.432 19.7587L181.928 15.9224L167.279 20.5436C163.811 26.0379 165.397 34.0471 170.747 37.8995L170.811 40.6786C170.875 43.5929 171.68 46.4429 173.15 48.9601L177.795 59.0757C181.207 59.1557 181.984 55.4635 183.337 52.4441C184.691 49.4246 184.707 46.0368 184.587 42.721C184.528 41.1191 184.445 39.5173 184.339 37.9155C185.38 36.1535 186.861 34.5116 187.734 32.6375C188.342 31.3062 188.638 29.8536 188.599 28.3907C188.56 26.9277 188.188 25.493 187.51 24.1958Z" fill="#263238"/>
<path d="M172.766 41.5278C172.966 41.4237 180.775 38.3242 181.247 46.5416C181.72 54.759 173.406 53.5416 173.382 53.3093C173.358 53.077 172.766 41.5278 172.766 41.5278Z" fill="#A46850"/>
<path d="M175.697 50.0658C175.697 50.0658 175.849 50.1619 176.097 50.258C176.445 50.3812 176.827 50.364 177.162 50.2099C178.011 49.8415 178.66 48.4239 178.604 46.9422C178.584 46.2388 178.407 45.5489 178.083 44.9239C177.992 44.6723 177.84 44.4468 177.642 44.2668C177.444 44.0868 177.205 43.9578 176.946 43.8907C176.782 43.8618 176.614 43.8897 176.468 43.9698C176.322 44.0499 176.208 44.1775 176.145 44.3312C176.049 44.5715 176.105 44.7317 176.065 44.7477C176.025 44.7637 175.881 44.6195 175.929 44.2752C175.961 44.071 176.063 43.8843 176.217 43.7466C176.326 43.6517 176.454 43.5801 176.591 43.536C176.729 43.492 176.874 43.4764 177.018 43.4903C177.364 43.5308 177.694 43.6607 177.975 43.8671C178.256 44.0735 178.478 44.3493 178.62 44.6676C179.011 45.358 179.228 46.1332 179.253 46.9262C179.301 48.5841 178.548 50.1779 177.379 50.5864C177.164 50.6656 176.934 50.6945 176.706 50.6709C176.478 50.6473 176.259 50.5718 176.065 50.4502C175.721 50.25 175.673 50.0658 175.697 50.0658Z" fill="#281209"/>
<path d="M186.653 23.2187C186.781 23.2187 186.861 23.6272 186.733 24.2919C186.513 25.2383 186.059 26.1142 185.412 26.8389C184.435 27.96 183.119 28.7307 181.663 29.0334C179.965 29.3938 178.267 29.0334 176.858 29.1855C176.111 29.2938 175.376 29.4735 174.663 29.7221C174.279 29.8343 173.862 29.9464 173.462 30.0345C173.061 30.1226 172.661 30.1867 172.277 30.2347C170.867 30.4531 169.427 30.3351 168.072 29.8903C167.143 29.5791 166.314 29.0263 165.669 28.2885C165.237 27.7679 165.124 27.3995 165.22 27.3114C165.461 27.0711 166.47 28.1123 168.424 28.4567C169.594 28.6301 170.787 28.5839 171.94 28.3205C172.277 28.2565 172.621 28.1764 172.965 28.0883C173.31 28.0002 173.646 27.88 174.015 27.7519C174.85 27.4388 175.718 27.2185 176.601 27.0951C178.556 26.927 180.093 27.3274 181.311 27.0951C182.431 26.9278 183.483 26.4569 184.354 25.7336C185.932 24.4922 186.341 23.1386 186.653 23.2187Z" fill="white"/>
<path d="M156.683 53.1813C156.731 53.4136 155.13 53.9021 153.352 54.8472C151.573 55.7923 150.26 56.8335 150.092 56.6573C149.924 56.4811 151.045 55.1195 152.959 54.1104C154.873 53.1012 156.651 52.9651 156.683 53.1813Z" fill="#263238"/>
<path d="M158.116 54.4307C158.004 54.3746 158.205 53.8059 158.036 53.1252C157.868 52.4444 157.476 52.0039 157.548 51.9158C157.62 51.8277 158.261 52.1881 158.445 53.0291C158.629 53.87 158.205 54.5027 158.116 54.4307Z" fill="#281209"/>
<path d="M161.921 41.1915C162.017 41.2395 161.625 41.9924 160.696 42.4409C159.767 42.8894 158.926 42.6972 158.958 42.5851C158.99 42.4729 159.719 42.4569 160.52 42.0645C161.321 41.672 161.825 41.1194 161.921 41.1915Z" fill="#281209"/>
<path d="M162.682 41.8241C162.778 41.8882 162.474 42.4248 161.825 42.7772C161.176 43.1296 160.568 43.0976 160.56 42.9855C160.552 42.8733 161.064 42.7212 161.625 42.4088C162.186 42.0964 162.586 41.752 162.682 41.8241Z" fill="#281209"/>
<path d="M140.248 43.5619C140.248 43.674 139.8 43.7461 139.335 43.5058C138.871 43.2655 138.67 42.8651 138.759 42.793C138.847 42.7209 139.143 42.9372 139.559 43.1294C139.976 43.3216 140.256 43.4417 140.248 43.5619Z" fill="#281209"/>
<path d="M140.16 44.5313C140.16 44.6435 139.647 44.6515 139.103 44.4032C138.558 44.1549 138.23 43.7705 138.302 43.6904C138.374 43.6103 138.782 43.8025 139.271 44.0268C139.76 44.251 140.2 44.4593 140.16 44.5313Z" fill="#281209"/>
<path d="M151.813 28.5127C150.892 29.2534 149.775 29.71 148.599 29.8266C147.423 29.9432 146.238 29.7149 145.189 29.1695C146.301 29.3741 147.432 29.4546 148.561 29.4097C149.675 29.2321 150.766 28.9313 151.813 28.5127Z" fill="#281209"/>
<path d="M152.59 29.3541C152.414 29.6809 152.17 29.966 151.875 30.19C151.579 30.4139 151.238 30.5713 150.876 30.6516C150.535 30.7977 150.166 30.867 149.795 30.8545C149.424 30.8421 149.06 30.7482 148.729 30.5795C149.408 30.5069 150.082 30.3973 150.748 30.2512C151.821 29.9228 152.502 29.242 152.59 29.3541Z" fill="#281209"/>
<path d="M138.246 24.3001C138.246 24.3001 138.166 24.228 138.046 24.0679C137.869 23.8332 137.716 23.5809 137.59 23.315C137.13 22.3312 136.907 21.2529 136.941 20.1674C136.941 17.4203 138.543 13.672 141.746 10.9409C143.232 9.65109 144.965 8.67815 146.84 8.0816C148.365 7.60082 149.959 7.37354 151.557 7.40883C152.638 7.42265 153.714 7.56514 154.761 7.83332C155.122 7.92943 155.402 8.01753 155.562 8.08961C155.722 8.16169 155.842 8.20174 155.834 8.21776C154.425 7.89752 152.987 7.72307 151.541 7.69716C149.977 7.70767 148.423 7.96166 146.936 8.45002C145.123 9.05068 143.447 10.0033 142.003 11.2532C138.911 13.9123 137.309 17.5244 137.253 20.1754C137.195 21.2251 137.367 22.2748 137.758 23.2509C138.03 23.9397 138.278 24.2761 138.246 24.3001Z" fill="#455A64"/>
<path d="M167.792 27.2476C167.552 27.2319 167.317 27.1778 167.095 27.0874C166.478 26.8772 165.883 26.609 165.317 26.2865C163.427 25.2272 161.812 23.7406 160.599 21.9455C159.988 20.9095 159.596 19.7592 159.446 18.5657C159.305 17.6087 159.249 16.6412 159.278 15.6744C159.295 15.0245 159.359 14.3767 159.47 13.7362C159.491 13.4986 159.551 13.266 159.646 13.0474C159.718 13.0474 159.55 14.0565 159.574 15.6824C159.584 16.6271 159.667 17.5697 159.822 18.5016C159.991 19.6318 160.374 20.7192 160.952 21.7052C162.137 23.4505 163.676 24.9268 165.469 26.0382C166.846 26.8872 167.816 27.1835 167.792 27.2476Z" fill="#455A64"/>
<path d="M144.501 24.1881C144.376 23.9355 144.289 23.6655 144.244 23.3872C144.086 22.6505 144.014 21.898 144.028 21.1446C144.039 18.6118 144.948 16.1649 146.594 14.2394C148.239 12.3138 150.514 11.0343 153.014 10.6286C153.757 10.4963 154.512 10.4533 155.265 10.5005C155.536 10.5028 155.806 10.5432 156.066 10.6206C155.054 10.6514 154.045 10.7504 153.046 10.917C150.649 11.3894 148.482 12.6571 146.894 14.5146C145.307 16.3722 144.393 18.7111 144.3 21.1527C144.291 22.1681 144.358 23.1828 144.501 24.1881Z" fill="#455A64"/>
<path d="M171.035 8.71425C169.321 8.4716 167.578 8.51219 165.877 8.83438C164.202 9.2819 162.614 10.0046 161.176 10.9728C161.485 10.5509 161.878 10.1966 162.329 9.93164C164.439 8.49464 167.013 7.90553 169.537 8.28175C170.06 8.32804 170.568 8.47489 171.035 8.71425Z" fill="#455A64"/>
<path d="M199.948 48.3918C199.532 48.8243 197.433 47.4147 194.566 46.5818C191.699 45.7488 189.184 45.6928 189.08 45.1001C189.04 44.8278 189.665 44.4513 190.786 44.2511C192.254 44.0365 193.752 44.1484 195.173 44.5789C196.593 45.0095 197.901 45.748 199.003 46.742C199.82 47.5269 200.133 48.1916 199.948 48.3918Z" fill="white"/>
<path d="M198.691 50.5303C198.691 50.5303 199.051 50.3461 199.676 49.9856C200.546 49.4747 201.319 48.813 201.958 48.0314C202.909 46.8911 203.509 45.5005 203.688 44.0268C203.871 42.2096 203.387 40.3879 202.327 38.901C201.237 37.4151 199.632 36.3897 197.826 36.0257C196.361 35.7121 194.846 35.7121 193.381 36.0257C192.03 36.352 190.706 36.7749 189.416 37.2911C189.724 37.0699 190.057 36.887 190.409 36.7465C191.341 36.3053 192.319 35.9669 193.324 35.7374C194.827 35.3732 196.391 35.3459 197.906 35.6573C199.801 36.0167 201.492 37.0778 202.639 38.6287C203.669 40.045 204.182 41.7716 204.093 43.5205C204.005 45.2694 203.319 46.9351 202.151 48.2396C201.479 49.0227 200.663 49.6698 199.748 50.1458C199.489 50.275 199.222 50.3847 198.947 50.4742C198.864 50.5023 198.778 50.5211 198.691 50.5303Z" fill="#263238"/>
<path d="M132.471 170.683C132.471 170.683 115.42 206.612 115.588 223.151C115.7 233.563 130.277 344.378 130.277 344.378H161.336L163.859 241.14L165.99 238.288L167.319 241.54C167.319 241.54 162.634 341.823 163.731 344.378H198.451C198.451 344.378 209.487 264.863 210.953 252.817C212.419 240.771 214.157 235.005 213.404 217.481C212.651 199.957 200.365 170.683 200.365 170.683C200.365 170.683 153.279 178.348 132.471 170.683Z" fill="#263238"/>
<path d="M134.042 170.924L131.158 180.839L139.472 182.625L141.81 172.646L134.042 170.924Z" fill="#455A64"/>
<path d="M144.966 173.062L143.284 182.625C149.792 183.291 156.334 183.558 162.875 183.426C172.622 183.162 182.145 182.345 186.413 180.855L185.172 172.325C185.172 172.325 152.975 175.281 144.966 173.062Z" fill="#455A64"/>
<path d="M189.328 171.845L191.386 180.254C191.386 180.254 198.034 179.526 200.773 177.924L198.483 170.371L189.328 171.845Z" fill="#455A64"/>
<path d="M144.966 342.992C144.885 340.702 143.748 307.704 142.266 264.615C141.578 242.99 141.089 223.352 140.945 209.159C140.945 205.611 140.945 202.4 140.905 199.548C140.865 196.697 140.953 194.31 140.969 192.34C140.985 190.37 141.073 188.832 141.105 187.775C141.105 187.262 141.105 186.87 141.145 186.582C141.185 186.293 141.145 186.181 141.145 186.181C141.145 186.181 141.145 186.317 141.145 186.59C141.145 186.862 141.145 187.262 141.145 187.775C141.145 188.84 141.145 190.37 141.089 192.34C141.033 194.31 141.089 196.761 141.089 199.548C141.089 202.336 141.145 205.579 141.185 209.159C141.401 223.344 141.938 242.95 142.627 264.599C143.316 286.247 143.948 305.822 144.405 320.022C144.621 327.118 144.765 332.837 144.845 336.841C144.845 338.811 144.893 340.341 144.909 341.406C144.909 341.919 144.909 342.311 144.909 342.6C144.909 342.888 144.966 342.992 144.966 342.992Z" fill="#455A64"/>
<path d="M165.165 184.066C165.195 184.222 165.209 184.38 165.205 184.539C165.205 184.891 165.205 185.34 165.205 185.884C165.205 187.102 165.205 188.776 165.261 190.818C165.301 194.991 165.389 200.749 165.565 207.109C165.741 213.468 165.997 219.227 166.19 223.391C166.286 225.434 166.358 227.108 166.414 228.325C166.414 228.859 166.43 229.307 166.462 229.67C166.484 229.827 166.484 229.986 166.462 230.143C166.428 229.99 166.404 229.835 166.39 229.679L166.27 228.333C166.166 227.172 166.046 225.49 165.909 223.407C165.645 219.243 165.349 213.484 165.165 207.125C164.98 200.765 164.988 195.031 164.988 190.818C164.988 188.736 165.028 187.046 165.06 185.876L165.108 184.539C165.106 184.38 165.125 184.221 165.165 184.066Z" fill="#455A64"/>
<path d="M166.478 230.143C166.303 230.123 166.13 230.093 165.958 230.055L164.476 229.767C162.647 229.413 160.839 228.956 159.062 228.397C158.459 228.205 157.882 227.936 157.348 227.596C157.188 227.489 157.06 227.339 156.979 227.164C156.923 226.995 156.875 226.835 156.827 226.675C156.745 226.337 156.684 225.995 156.643 225.65C156.483 224.248 156.571 222.775 156.555 221.221C156.555 218.105 156.595 214.693 156.619 211.113C156.691 203.961 156.763 197.498 156.811 192.748C156.859 190.434 156.899 188.544 156.923 187.182C156.923 186.557 156.939 186.053 156.971 185.668C156.967 185.491 156.983 185.313 157.019 185.14C157.036 185.315 157.036 185.492 157.019 185.668C157.019 186.053 157.019 186.557 157.019 187.182C157.019 188.544 157.019 190.434 157.019 192.748C157.019 197.49 156.971 203.961 156.947 211.113C156.947 214.701 156.883 218.113 156.851 221.221C156.851 222.775 156.763 224.256 156.899 225.61C156.935 225.941 156.991 226.271 157.068 226.595C157.108 226.747 157.148 226.907 157.196 227.052C157.258 227.166 157.345 227.265 157.452 227.34C157.951 227.66 158.49 227.916 159.054 228.101C161.256 228.862 163.122 229.262 164.396 229.59L165.862 229.959C166.077 229.982 166.286 230.045 166.478 230.143Z" fill="#455A64"/>
<path d="M183.802 342.992C183.802 342.992 183.802 342.856 183.802 342.584C183.802 342.311 183.842 341.887 183.874 341.366C183.938 340.285 184.042 338.715 184.162 336.705C184.459 332.644 184.875 326.798 185.396 319.573C186.453 305.117 187.926 285.134 189.104 263.045C190.281 240.956 190.706 220.909 190.233 206.42C190.161 204.61 190.081 202.888 190.009 201.262C189.937 199.636 189.889 198.059 189.745 196.657C189.488 193.79 189.352 191.315 189.096 189.305C188.84 187.294 188.607 185.756 188.455 184.683C188.391 184.163 188.335 183.762 188.303 183.474C188.271 183.186 188.263 183.065 188.263 183.065C188.263 183.065 188.263 183.202 188.343 183.474C188.423 183.746 188.455 184.155 188.543 184.667C188.703 185.74 188.952 187.294 189.256 189.281C189.56 191.267 189.697 193.774 189.977 196.641C190.137 198.075 190.201 199.612 190.281 201.246C190.361 202.88 190.441 204.602 190.529 206.412C191.106 220.917 190.634 240.964 189.52 263.069C188.407 285.174 186.821 305.141 185.684 319.597C185.115 326.806 184.651 332.66 184.33 336.721C184.17 338.723 184.042 340.293 183.954 341.374C183.906 341.895 183.874 342.295 183.85 342.584C183.826 342.872 183.802 342.992 183.802 342.992Z" fill="#455A64"/>
<path d="M163.475 183.762V185.62L174.239 185.204C174.58 185.191 174.903 185.046 175.14 184.8C175.376 184.553 175.507 184.224 175.504 183.882V173.943C175.504 173.593 175.365 173.256 175.117 173.009C174.87 172.761 174.533 172.622 174.183 172.622H162.754V174.111L173.59 174.672V178.284H172.861C172.785 178.282 172.71 178.295 172.639 178.323C172.568 178.35 172.503 178.392 172.449 178.445C172.394 178.498 172.351 178.561 172.322 178.631C172.292 178.701 172.277 178.777 172.277 178.853C172.279 178.999 172.337 179.14 172.44 179.244C172.543 179.349 172.683 179.409 172.829 179.413H173.63V183.017L163.475 183.762Z" fill="#E0E0E0"/>
<path d="M157.244 173.294H154.2V183.706H157.244V173.294Z" fill="#263238"/>
<path d="M172.637 180.038C172.597 180.078 172.429 180.038 172.253 179.758C172.033 179.439 171.926 179.055 171.948 178.669C171.968 178.281 172.127 177.914 172.397 177.635C172.597 177.419 172.773 177.363 172.805 177.403C172.837 177.443 172.413 177.964 172.365 178.701C172.317 179.437 172.725 179.966 172.637 180.038Z" fill="#263238"/>
<path d="M163.987 177.924C163.987 177.924 164.043 177.86 164.163 177.868C164.246 177.882 164.324 177.914 164.392 177.963C164.46 178.011 164.516 178.075 164.556 178.148C164.622 178.258 164.661 178.382 164.67 178.511C164.678 178.639 164.656 178.767 164.604 178.885C164.528 179.03 164.413 179.15 164.271 179.231C164.129 179.312 163.966 179.351 163.803 179.341C163.638 179.32 163.483 179.247 163.361 179.134C163.239 179.02 163.156 178.872 163.122 178.709C163.1 178.581 163.112 178.451 163.157 178.33C163.202 178.209 163.278 178.102 163.378 178.02C163.723 177.756 164.003 177.884 163.979 177.924C163.955 177.964 163.755 178.004 163.587 178.228C163.539 178.282 163.505 178.347 163.49 178.417C163.474 178.487 163.477 178.56 163.499 178.629C163.518 178.705 163.56 178.774 163.618 178.826C163.676 178.879 163.749 178.913 163.827 178.925C163.912 178.926 163.996 178.906 164.071 178.867C164.146 178.827 164.211 178.77 164.259 178.701C164.287 178.635 164.301 178.564 164.301 178.492C164.301 178.421 164.287 178.35 164.259 178.284C164.187 178.012 163.995 177.98 163.987 177.924Z" fill="#263238"/>
<path d="M194.014 180.038C194.219 179.498 194.488 178.985 194.815 178.508C195.111 178.004 195.424 177.467 195.76 176.907L196.329 175.962C196.54 175.653 196.728 175.329 196.889 174.992C196.936 174.834 196.946 174.668 196.919 174.505C196.891 174.343 196.826 174.189 196.729 174.055C196.492 173.807 196.223 173.591 195.928 173.415L194.414 172.333C193.93 172.023 193.484 171.658 193.085 171.244C193.618 171.46 194.121 171.743 194.583 172.085L196.144 173.102L196.593 173.399C196.772 173.508 196.93 173.649 197.058 173.815C197.192 174.001 197.283 174.215 197.322 174.442C197.361 174.668 197.347 174.9 197.282 175.121C197.207 175.326 197.105 175.52 196.977 175.697L196.665 176.186L196.072 177.115L195.055 178.661C194.767 179.161 194.417 179.624 194.014 180.038Z" fill="#263238"/>
<path d="M212.243 204.282C212.158 204.347 212.063 204.398 211.962 204.434C211.676 204.553 211.378 204.642 211.073 204.698C209.938 204.848 208.782 204.705 207.718 204.282C206.158 203.661 204.679 202.854 203.312 201.879C197.532 198.022 193.148 192.405 190.81 185.861C190.662 185.476 190.547 185.079 190.466 184.675C190.67 185.034 190.836 185.412 190.962 185.805C191.267 186.541 191.763 187.583 192.372 188.848C194.07 192.119 196.264 195.107 198.875 197.706C200.312 199.13 201.868 200.427 203.529 201.583C204.865 202.542 206.305 203.348 207.822 203.985C208.832 204.416 209.93 204.6 211.025 204.522C211.834 204.434 212.243 204.242 212.243 204.282Z" fill="#455A64"/>
<path d="M134.089 188.055C133.729 188.797 133.285 189.496 132.767 190.138C130.427 193.346 127.6 196.17 124.39 198.507C123.749 199.022 123.053 199.465 122.315 199.829C122.914 199.27 123.548 198.751 124.214 198.275C127.294 195.825 130.085 193.033 132.535 189.953C133.014 189.29 133.533 188.656 134.089 188.055Z" fill="#455A64"/>
<path d="M162.034 107.627L161.473 80.8849C161.201 77.449 158.229 78.0898 158.229 78.0898C158.229 78.0898 158.037 87.5726 157.244 92.8987C156.451 98.2248 153.584 104.111 153.488 105.305C153.392 106.498 153.023 116.638 152.687 119.889C152.24 122.634 151.556 125.335 150.645 127.963L158.261 133.817L160.576 130.566C160.576 130.566 163.179 128.708 163.78 126.385C164.38 124.062 162.034 107.627 162.034 107.627Z" fill="#A46850"/>
<path d="M162.033 107.628C162.033 107.628 162.073 107.772 162.121 108.06L162.314 109.317C162.482 110.423 162.714 112.049 162.986 114.123C163.259 116.197 163.579 118.76 163.827 121.716C163.9 122.46 163.948 123.221 163.988 124.014C163.988 124.415 164.028 124.815 163.988 125.224C163.996 125.649 163.953 126.074 163.859 126.489C163.594 127.331 163.163 128.113 162.594 128.788C162.014 129.495 161.353 130.133 160.624 130.686V130.646L158.317 133.906L158.205 134.05L158.061 133.938L150.436 128.099L150.332 128.019V127.883C151.565 124.535 152.315 121.03 152.559 117.471C152.807 113.747 152.959 109.894 153.151 105.946C153.151 105.609 153.186 105.274 153.255 104.944C153.343 104.616 153.448 104.312 153.552 103.999L154.216 102.197C154.665 101.004 155.097 99.7946 155.49 98.6332C156.277 96.3322 156.814 93.9531 157.092 91.5371C157.62 86.8037 157.789 82.2706 157.893 78.1058V77.9536H158.037C158.655 77.8416 159.293 77.914 159.871 78.1619C160.436 78.4194 160.886 78.8755 161.136 79.4433C161.373 79.9783 161.495 80.5565 161.497 81.1413C161.497 81.6939 161.497 82.2385 161.497 82.7832C161.497 84.9376 161.577 86.9879 161.609 88.9181C161.673 92.7705 161.729 96.1264 161.777 98.9216C161.825 101.717 161.841 103.863 161.857 105.377C161.857 106.106 161.857 106.674 161.857 107.083C161.857 107.259 161.857 107.403 161.857 107.523C161.857 107.644 161.857 107.668 161.857 107.668C161.857 107.668 161.857 107.62 161.857 107.523C161.857 107.427 161.857 107.267 161.857 107.091C161.857 106.682 161.857 106.114 161.793 105.385C161.745 103.871 161.689 101.693 161.609 98.9376C161.529 96.1825 161.449 92.7866 161.353 88.9342C161.353 87.004 161.265 84.9296 161.208 82.7992C161.144 81.7259 161.305 80.5646 160.832 79.5955C160.62 79.1009 160.228 78.7056 159.735 78.4902C159.229 78.2769 158.673 78.2157 158.133 78.314L158.277 78.1378C158.173 82.3186 158.021 86.8438 157.476 91.6092C157.188 94.0637 156.638 96.4803 155.834 98.8175C155.442 100.011 155.033 101.22 154.561 102.39L153.896 104.192C153.792 104.488 153.688 104.792 153.616 105.089C153.55 105.391 153.517 105.7 153.52 106.01C153.327 109.958 153.175 113.819 152.919 117.543C152.673 121.149 151.909 124.702 150.652 128.091L150.588 127.875L158.189 133.737L157.941 133.777L160.263 130.534C161.692 129.546 162.789 128.151 163.411 126.529C163.496 126.137 163.536 125.737 163.531 125.336C163.531 124.935 163.531 124.535 163.531 124.142C163.531 123.341 163.451 122.597 163.395 121.86C163.163 118.912 162.866 116.357 162.634 114.267C162.402 112.177 162.186 110.567 162.049 109.462C161.985 108.917 161.937 108.501 161.897 108.196C161.857 107.892 162.033 107.628 162.033 107.628Z" fill="#281209"/>
<path d="M161.505 83.2635C161.297 82.958 161.072 82.664 160.832 82.3825C160.533 82.0869 160.187 81.8433 159.807 81.6617C159.586 81.5372 159.331 81.4878 159.079 81.521C158.828 81.5542 158.594 81.6683 158.413 81.8459L158.454 81.7178C158.558 82.5187 158.718 83.4798 158.798 84.5049C158.878 85.5301 158.902 86.6274 158.87 87.7727C158.771 90.1956 158.473 92.6064 157.981 94.9809C157.797 95.8859 157.637 96.5827 157.516 97.1194C157.481 97.3967 157.402 97.6668 157.284 97.9203C157.361 96.9256 157.495 95.9362 157.685 94.9569C158.1 92.5972 158.368 90.2138 158.486 87.8207C158.486 86.6914 158.486 85.6102 158.429 84.6171C158.373 83.6239 158.229 82.6789 158.149 81.8459V81.7738L158.189 81.7178C158.304 81.5882 158.444 81.4842 158.601 81.4125C158.759 81.3407 158.929 81.3028 159.102 81.3013C159.398 81.3 159.69 81.3715 159.951 81.5095C160.35 81.7057 160.706 81.9777 161 82.3104C161.185 82.5289 161.338 82.7714 161.457 83.0313C161.497 83.1594 161.521 83.2635 161.505 83.2635Z" fill="#281209"/>
<path d="M161.721 93.6433C161.63 93.2313 161.566 92.814 161.528 92.3939C161.469 91.9266 161.308 91.4782 161.056 91.0804C160.662 90.6257 160.109 90.3392 159.51 90.2795L159.726 90.1193C159.678 91.641 159.582 93.4671 159.39 95.4133C159.126 98.1444 158.733 100.611 158.397 102.381C158.221 103.262 158.06 103.983 157.94 104.464C157.9 104.725 157.822 104.978 157.708 105.217C157.788 104.247 157.919 103.281 158.1 102.325C158.373 100.555 158.717 98.0964 158.973 95.3733C159.166 93.4351 159.286 91.617 159.374 90.1033V89.895L159.582 89.9351C160.258 90.0318 160.87 90.388 161.288 90.9282C161.542 91.3694 161.692 91.8622 161.729 92.3699C161.794 92.7921 161.791 93.222 161.721 93.6433Z" fill="#281209"/>
<path d="M157.781 108.1C157.709 108.188 157.26 107.851 157.204 107.219C157.148 106.586 157.516 106.162 157.604 106.242C157.693 106.322 157.564 106.698 157.604 107.179C157.645 107.659 157.845 108.02 157.781 108.1Z" fill="#281209"/>
<path d="M156.555 101.5C156.45 101.54 156.146 100.94 156.202 100.123C156.258 99.3056 156.643 98.753 156.739 98.8091C156.835 98.8651 156.659 99.4338 156.619 100.155C156.579 100.875 156.667 101.46 156.555 101.5Z" fill="#281209"/>
<path d="M172.861 122.804C172.261 119.601 171.18 109.517 171.003 108.316C170.827 107.115 167.559 101.46 166.39 96.206C165.221 90.952 164.364 81.5013 164.364 81.5013C164.364 81.5013 161.36 81.0688 161.32 84.5207L162.642 111.231C162.642 111.231 161.456 127.794 162.233 130.069C163.01 132.343 165.741 134.009 165.741 134.009L168.28 137.085L175.488 130.677C174.392 128.132 173.513 125.498 172.861 122.804Z" fill="#A46850"/>
<path d="M172.861 122.804C172.861 122.804 172.861 122.844 172.861 122.933C172.861 123.021 172.917 123.173 172.957 123.333C173.053 123.693 173.182 124.214 173.39 124.935C174.001 126.897 174.713 128.827 175.52 130.717V130.782L175.464 130.838L168.312 137.245L168.192 137.349L168.096 137.229L165.541 134.161H165.581C164.83 133.676 164.137 133.106 163.515 132.463C162.834 131.785 162.312 130.964 161.985 130.061C161.796 129.101 161.71 128.124 161.729 127.145C161.729 126.16 161.729 125.159 161.729 124.142C161.817 120.073 162.057 115.74 162.361 111.199C162.137 106.762 161.905 102.061 161.664 97.2392C161.512 94.1317 161.36 91.0882 161.216 88.1328C161.216 87.388 161.144 86.6591 161.104 85.9303C161.036 85.1977 161.036 84.4604 161.104 83.7278C161.145 83.3476 161.261 82.9794 161.447 82.6451C161.633 82.3108 161.884 82.0172 162.185 81.7816C162.807 81.3521 163.565 81.1642 164.315 81.253H164.468V81.4212C164.756 84.4807 165.084 87.436 165.477 90.2312C165.787 92.9154 166.304 95.5717 167.023 98.1763C167.763 100.461 168.646 102.697 169.666 104.872C170.122 105.905 170.595 106.866 170.947 107.859C171.068 108.362 171.145 108.874 171.179 109.389C171.235 109.878 171.291 110.358 171.348 110.823C171.764 114.571 172.1 117.542 172.357 119.585C172.485 120.578 172.589 121.363 172.661 121.915L172.749 122.516C172.758 122.585 172.758 122.655 172.749 122.724C172.723 122.66 172.705 122.593 172.693 122.524C172.693 122.372 172.629 122.172 172.581 121.923C172.485 121.395 172.357 120.618 172.204 119.601C171.908 117.566 171.532 114.595 171.083 110.855C171.027 110.39 170.963 109.91 170.907 109.421C170.863 108.925 170.786 108.433 170.675 107.947C170.33 106.994 169.834 106.017 169.377 105C168.336 102.817 167.434 100.57 166.678 98.2724C165.941 95.6474 165.406 92.9699 165.076 90.2633C164.687 87.4334 164.345 84.4967 164.051 81.4532L164.219 81.6294C163.573 81.5591 162.923 81.721 162.385 82.0859C162.127 82.2921 161.912 82.5478 161.754 82.838C161.596 83.1282 161.498 83.447 161.464 83.7758C161.397 84.4844 161.397 85.1978 161.464 85.9063C161.464 86.6271 161.536 87.364 161.568 88.1008C161.72 91.0642 161.873 94.1077 162.025 97.2072C162.265 102.013 162.489 106.722 162.714 111.159C162.401 115.684 162.153 120.025 162.049 124.078C162.049 125.095 162.009 126.088 162.049 127.065C162.03 128.01 162.108 128.955 162.281 129.885C162.591 130.727 163.08 131.493 163.715 132.127C164.316 132.752 164.985 133.308 165.709 133.785L168.248 136.868H168.032L175.24 130.533V130.653C174.448 128.751 173.766 126.804 173.198 124.823C173.005 124.134 172.885 123.605 172.821 123.221L172.749 122.812C172.861 122.852 172.853 122.804 172.861 122.804Z" fill="#281209"/>
<path d="M161.44 86.9556C161.511 86.697 161.622 86.451 161.769 86.2268C161.914 85.944 162.085 85.6758 162.281 85.4259C162.54 85.0619 162.916 84.7987 163.347 84.681C163.632 84.6399 163.923 84.6967 164.171 84.8421C164.42 84.9876 164.612 85.2132 164.716 85.4819C164.861 86.0574 164.907 86.6531 164.852 87.244C164.852 88.4453 164.916 89.7668 165.045 91.1444C165.285 93.4987 165.654 95.8382 166.15 98.1524C166.396 99.1068 166.586 100.075 166.718 101.052C166.596 100.815 166.502 100.565 166.438 100.307C166.294 99.8183 166.086 99.1055 165.861 98.2245C165.277 95.9115 164.865 93.5584 164.628 91.1845C164.506 89.8746 164.453 88.5593 164.468 87.244C164.529 86.7096 164.504 86.1689 164.396 85.6421C164.324 85.4407 164.188 85.2687 164.008 85.1528C163.829 85.037 163.616 84.9837 163.403 85.0014C163.032 85.0956 162.702 85.3096 162.466 85.6101C162.261 85.8357 162.073 86.0767 161.905 86.3309C161.774 86.5558 161.618 86.7653 161.44 86.9556Z" fill="#281209"/>
<path d="M161.969 97.6558C161.927 97.5402 161.905 97.4183 161.905 97.2954C161.879 96.9542 161.879 96.6115 161.905 96.2702C161.931 95.7306 162.059 95.2008 162.281 94.7085C162.434 94.3764 162.656 94.0809 162.932 93.8419C163.208 93.6028 163.533 93.4259 163.883 93.3229L164.083 93.2588V93.475C164.268 94.9407 164.5 96.6787 164.812 98.5288C165.269 101.276 165.789 103.751 166.19 105.529C166.444 106.484 166.647 107.452 166.798 108.428C166.667 108.195 166.57 107.944 166.51 107.683C166.35 107.195 166.142 106.49 165.901 105.601C165.429 103.831 164.86 101.364 164.404 98.6009C164.091 96.7428 163.875 94.9968 163.723 93.5151L163.955 93.6673C163.647 93.7499 163.36 93.8969 163.113 94.0984C162.866 94.3 162.664 94.5515 162.522 94.8366C162.295 95.2943 162.149 95.7873 162.089 96.2943C161.993 97.1512 162.025 97.6558 161.969 97.6558Z" fill="#281209"/>
<path d="M166.975 111.32C166.879 111.248 167.063 110.871 167.063 110.391C167.063 109.91 166.919 109.526 167.015 109.454C167.111 109.382 167.496 109.758 167.48 110.399C167.464 111.039 167.047 111.408 166.975 111.32Z" fill="#281209"/>
<path d="M167.703 104.656C167.583 104.656 167.647 104.023 167.543 103.31C167.439 102.597 167.231 102.037 167.335 101.981C167.439 101.925 167.848 102.445 167.96 103.254C168.072 104.063 167.808 104.688 167.703 104.656Z" fill="#281209"/>
<g opacity="0.3">
<path opacity="0.3" d="M170.987 136.837C169.505 135.123 167.631 133.401 165.381 133.417C163.37 133.417 161.656 134.818 160.231 136.228C155.642 140.932 151.886 146.381 149.122 152.342C146.247 158.229 142.763 165.309 140.576 171.484C145.382 170.475 149.643 167.48 152.886 163.771C156.13 160.063 158.493 155.65 160.551 151.189C161.272 149.651 162.305 147.865 164.003 147.825C165.252 147.825 166.278 148.794 167.062 149.771C169.313 152.615 170.827 155.962 172.413 159.222C173.998 162.482 175.728 165.75 178.307 168.304C180.886 170.859 184.466 172.629 188.07 172.229C183.954 159.695 179.637 146.8 170.987 136.837Z" fill="black"/>
</g>
<path d="M121.875 90.9121C121.875 90.9121 111.375 97.5277 111.063 110.559C110.751 123.589 111.527 158.325 113.858 162.978C116.189 167.632 117.863 184.379 132.936 177.395C141.386 173.478 150.556 160.768 156.563 150.1C159.379 145.119 161.82 139.937 163.867 134.594L149.683 125.448L131.847 146.536L131.294 126.256L121.875 90.9121Z" fill="#1A237E"/>
<path d="M131.847 146.512C131.847 146.584 131.206 146.624 130.245 146.896C128.972 147.268 127.781 147.879 126.737 148.698C125.695 149.532 124.744 150.474 123.902 151.509C123.575 151.963 123.21 152.389 122.812 152.783C123.018 152.257 123.308 151.767 123.669 151.333C124.459 150.215 125.406 149.217 126.481 148.37C127.561 147.51 128.824 146.91 130.173 146.616C130.718 146.467 131.288 146.431 131.847 146.512Z" fill="#263238"/>
<path d="M131.759 146.352C130.363 146.314 128.966 146.37 127.578 146.52C126.221 146.812 124.883 147.189 123.573 147.649C124.735 146.8 126.099 146.269 127.53 146.111C128.936 145.816 130.395 145.899 131.759 146.352Z" fill="#263238"/>
<path d="M163.867 134.57C163.845 134.719 163.804 134.864 163.747 135.003L163.315 136.212C162.938 137.261 162.338 138.751 161.553 140.585C159.468 145.339 157.027 149.928 154.248 154.313C151.459 158.69 148.38 162.875 145.03 166.839C143.748 168.361 142.683 169.57 141.922 170.379L141.041 171.316C140.942 171.428 140.832 171.53 140.713 171.621C140.786 171.49 140.875 171.369 140.977 171.26L141.778 170.275C142.499 169.426 143.524 168.193 144.782 166.655C148.053 162.646 151.088 158.45 153.872 154.089C156.637 149.721 159.104 145.173 161.256 140.473C162.057 138.663 162.722 137.189 163.139 136.156C163.347 135.684 163.507 135.291 163.643 134.979C163.7 134.833 163.775 134.696 163.867 134.57Z" fill="#263238"/>
<path d="M131.294 126.233C131.305 126.36 131.305 126.489 131.294 126.617C131.294 126.905 131.334 127.274 131.358 127.73C131.398 128.739 131.454 130.133 131.526 131.911C131.646 135.531 131.806 140.585 131.999 146.504L131.662 146.384L139.463 137.133L149.499 125.303L149.603 125.175L149.739 125.263L159.975 131.959L162.834 133.865L163.579 134.378C163.669 134.432 163.752 134.496 163.827 134.57C163.73 134.534 163.639 134.486 163.555 134.426L162.754 133.961L159.838 132.135L149.531 125.576L149.763 125.536L139.767 137.405L131.943 146.64L131.606 147.024V146.52C131.478 140.593 131.366 135.539 131.286 131.919C131.286 130.157 131.238 128.715 131.222 127.73V126.617C131.235 126.487 131.26 126.359 131.294 126.233Z" fill="#263238"/>
<path d="M207.228 86.8276C207.228 86.8276 216.103 91.3208 216.495 112.185C216.888 133.048 218.441 157.797 216.495 162.09C215.021 165.293 211.561 175.104 205.282 178.452C203.392 179.453 201.958 179.502 199.38 179.125C190.81 177.876 179.565 167.856 171.019 151.405C164.516 138.887 164.115 133.088 164.115 133.088L176.049 121.075L199.347 149.964L199.78 122.268L207.228 86.8276Z" fill="#1A237E"/>
<path d="M199.596 123.101C199.596 123.101 199.596 123.261 199.596 123.582C199.596 123.902 199.596 124.382 199.596 124.983C199.596 126.233 199.596 128.035 199.596 130.349C199.596 135.027 199.532 141.738 199.483 149.964V150.404L199.211 150.06L175.873 121.227H176.177L166.95 130.525L164.243 133.249L164.299 133.056C166.499 142.349 170.425 151.146 175.873 158.99C180.197 165.43 185.599 171.077 191.843 175.681C193.091 176.618 194.433 177.424 195.847 178.084C196.498 178.376 197.173 178.61 197.866 178.781C198.524 178.919 199.19 179.021 199.86 179.085C202.075 179.354 204.318 178.914 206.267 177.827C207.463 177.088 208.496 176.112 209.303 174.96C209.583 174.576 209.791 174.263 209.919 174.055C210.048 173.847 210.136 173.751 210.136 173.751C209.896 174.187 209.628 174.607 209.335 175.008C208.551 176.195 207.524 177.202 206.323 177.964C204.349 179.094 202.065 179.566 199.804 179.309C199.155 179.229 198.474 179.173 197.778 179.021C197.068 178.851 196.376 178.615 195.711 178.316C194.279 177.662 192.92 176.856 191.659 175.913C185.359 171.321 179.906 165.668 175.544 159.206C170.048 151.323 166.092 142.473 163.883 133.12V133.008L163.963 132.928L166.67 130.197L175.905 120.906L176.065 120.738L176.209 120.922C185.019 131.879 193.028 141.818 199.435 149.844L199.155 149.94C199.267 141.714 199.347 135.011 199.411 130.333C199.451 128.019 199.483 126.217 199.508 124.967C199.508 124.358 199.508 123.894 199.508 123.566C199.528 123.409 199.558 123.254 199.596 123.101Z" fill="#263238"/>
<path d="M208.862 160.72C208.423 160.174 208.021 159.599 207.661 158.998C206.709 157.611 205.665 156.289 204.537 155.041C203.402 153.801 202.201 152.622 200.941 151.509C200.387 151.076 199.87 150.596 199.396 150.076C200.018 150.409 200.599 150.815 201.125 151.285C202.461 152.339 203.707 153.501 204.85 154.761C205.995 156.021 207.019 157.386 207.909 158.838C208.311 159.419 208.632 160.052 208.862 160.72Z" fill="#263238"/>
<path d="M206.276 91.0083C206.332 91.0564 205.635 91.9133 204.674 93.411C202.136 97.3024 200.477 101.7 199.812 106.298C199.556 108.06 199.508 109.165 199.436 109.165C199.389 108.901 199.376 108.632 199.396 108.364C199.398 107.655 199.441 106.946 199.524 106.242C200.031 101.557 201.72 97.0788 204.434 93.2268C204.838 92.6453 205.274 92.0865 205.739 91.5529C205.893 91.3484 206.073 91.1652 206.276 91.0083Z" fill="#263238"/>
<path d="M129.34 112.377C129.276 112.377 129.131 111.311 128.811 109.59C128.403 107.348 127.869 105.131 127.209 102.95C126.54 100.773 125.754 98.6346 124.854 96.5426C124.439 95.692 124.067 94.8205 123.741 93.9316C123.908 94.1258 124.048 94.3413 124.158 94.5724C124.406 94.9969 124.734 95.6296 125.119 96.4225C126.11 98.4923 126.942 100.634 127.61 102.83C128.274 105.027 128.775 107.27 129.107 109.541C129.227 110.414 129.3 111.143 129.332 111.608C129.373 111.862 129.375 112.121 129.34 112.377Z" fill="#263238"/>
<g opacity="0.3">
<path opacity="0.3" d="M210.024 160.664C209.644 158.976 208.765 157.441 207.501 156.259C205.155 153.744 202.394 151.65 199.34 150.068C203.128 153.1 206.389 156.737 208.991 160.832C209.191 161.153 209.584 161.513 209.88 161.281C209.955 161.199 210.008 161.099 210.033 160.991C210.059 160.883 210.056 160.77 210.024 160.664Z" fill="black"/>
</g>
<g opacity="0.3">
<path opacity="0.3" d="M131.695 146.488C129.243 146.116 126.738 146.579 124.581 147.802C122.424 149.025 120.741 150.937 119.801 153.232C119.607 153.648 119.509 154.102 119.513 154.561C119.521 154.789 119.591 155.011 119.717 155.202C119.843 155.393 120.019 155.545 120.226 155.642C120.478 155.716 120.746 155.711 120.995 155.628C121.244 155.545 121.462 155.388 121.619 155.178C121.933 154.758 122.176 154.29 122.34 153.792C123.189 151.81 124.551 150.09 126.285 148.809C128.019 147.528 130.063 146.732 132.207 146.504L131.695 146.488Z" fill="black"/>
</g>
<path d="M336.384 344.081C336.384 344.193 261.098 344.29 168.192 344.29C75.286 344.29 0 344.193 0 344.081C0 343.969 75.286 343.873 168.232 343.873C261.178 343.873 336.384 344.001 336.384 344.081Z" fill="#263238"/>
</svg>
